<?xml version="1.0" encoding="UTF-8" standalone="no"?>
<!-- Created with Inkscape (http://www.inkscape.org/) -->

<svg
   width="61.319mm"
   height="9.4630003mm"
   viewBox="0 0 61.319 9.463"
   version="1.1"
   id="svg1"
   inkscape:version="1.4 (e7c3feb100, 2024-10-09)"
   sodipodi:docname="drawing.svg"
   xmlns:inkscape="http://www.inkscape.org/namespaces/inkscape"
   xmlns:sodipodi="http://sodipodi.sourceforge.net/DTD/sodipodi-0.dtd"
   xmlns="http://www.w3.org/2000/svg"
   xmlns:svg="http://www.w3.org/2000/svg">
  <sodipodi:namedview
     id="namedview1"
     pagecolor="#ffffff"
     bordercolor="#000000"
     borderopacity="1"
     inkscape:showpageshadow="2"
     inkscape:pageopacity="0.0"
     inkscape:pagecheckerboard="true"
     inkscape:deskcolor="#d1d1d1"
     inkscape:document-units="mm"
     showborder="false"
     inkscape:zoom="0.49175084"
     inkscape:cx="394.50873"
     inkscape:cy="557.19274"
     inkscape:window-width="1239"
     inkscape:window-height="761"
     inkscape:window-x="-5"
     inkscape:window-y="22"
     inkscape:window-maximized="0"
     inkscape:current-layer="layer1" />
  <defs
     id="defs1" />
  <g
     inkscape:label="Layer 1"
     inkscape:groupmode="layer"
     id="layer1"
     transform="translate(-0.7588931,-0.81483599)">
    <path
       d="m 58.237913,5.1199371 c -0.08282,0.0076 -0.166688,0.01352 -0.247915,0.024 -0.05265,0.0066 -0.07567,-0.0087 -0.111125,-0.01619 -0.01164,-0.0026 -0.02434,-0.0081 -0.03519,-0.0071 -0.08229,0.0076 -0.164306,0.01598 -0.246327,0.02432 -0.02461,0.01461 -0.04022,0.03368 -0.07858,0.04141 -0.03757,0.0073 -0.08202,0.0083 -0.124089,0.01254 -0.05503,0.0052 -0.110332,0.01042 -0.16563,0.01529 -0.02778,0.0024 -0.05027,0.0098 -0.059,0.02294 -0.0016,0.0022 0.01693,0.0072 0.02699,0.01019 0.03387,0.01003 0.06667,0.02151 0.103981,0.02895 0.03519,0.0071 0.07858,-0.0068 0.116681,0.0024 0.0852,0.02074 0.08599,0.02035 0.150548,0.01458 0.0553,-0.0052 0.110331,-0.01079 0.165629,-0.01495 0.01085,-9.53e-4 0.02355,0.0041 0.03545,0.0068 0.03545,0.0071 0.05847,0.02458 0.110331,0.01656 0.03916,-0.0063 0.08281,-0.0084 0.123825,-0.01217 0.03466,0.0097 0.06694,0.0208 0.103981,0.02823 0.0344,0.0071 0.04471,0.01304 0.02646,0.02389 -0.0164,0.01011 -0.03995,0.01458 -0.07091,0.01601 -0.02778,0.001 -0.0553,0.0049 -0.08281,0.0073 -0.01429,0.0014 -0.02778,0.0024 -0.04101,0.0038 -0.05292,0.0052 -0.05292,0.0052 -0.149754,-0.01569 -0.0381,-0.0081 -0.08043,0.0054 -0.116681,-0.0024 -0.02461,-0.0052 -0.04577,-0.01336 -0.06932,-0.01894 -0.01005,-0.0023 -0.02593,-0.0023 -0.03863,-0.0013 -0.0418,0.0035 -0.08387,0.0062 -0.123825,0.01183 -0.02858,0.0039 -0.04498,0.01434 -0.04154,0.02434 0.0011,0.0039 0.02117,0.0092 0.03307,0.0093 0.02672,1.05e-4 0.0553,-0.0056 0.08123,-0.0037 0.02513,0.0019 0.05133,0.0085 0.07011,0.01603 0.0381,0.01569 0.08043,-2.7e-5 0.116681,0.0035 0.03784,0.0038 0.06906,0.01751 0.105304,0.02535 0.0093,0.0019 0.02699,-0.0021 0.04101,-0.0035 0.04127,-0.0035 0.08229,-0.0065 0.123296,-0.01 0.03466,0.0097 0.0717,0.01818 0.102923,0.02934 0.05689,0.02032 0.117211,0.02723 0.189971,0.01513 0.04101,-0.0067 0.08123,-0.0055 0.1143,0.0078 0.03387,0.01363 0.0725,0.01132 0.115094,0.0075 0.03942,-0.0038 0.07964,-0.01259 0.120121,-0.0034 0.08758,0.02032 0.08837,0.02138 0.191558,0.0104 0.03096,-0.0032 0.05424,-0.0045 0.07805,0.0033 0.02196,0.0071 0.04551,0.01299 0.06826,0.01968 0.04101,-0.0035 0.08308,-0.0069 0.124089,-0.01074 0.05265,-0.0052 0.08202,-7.94e-4 0.09525,0.01908 0.0077,0.01206 0.01138,0.02315 0.03016,0.03101 0.02196,0.0096 0.04551,0.0087 0.07726,0.0051 0.03016,-0.0032 0.05186,-0.0077 0.06403,-0.0209 0.005,-0.0055 0.01482,-0.0108 0.02408,-0.01532 0.0074,-0.0034 0.01905,-0.0087 0.02567,-0.0082 0.0127,0.0012 0.02963,0.0047 0.03387,0.0093 0.04207,0.04262 0.04207,0.04297 0.0844,0.05461 0.0463,0.01299 0.09446,0.0245 0.136789,0.03937 0.0381,0.01318 0.07567,0.0062 0.116681,0.0053 0.03096,-7.15e-4 0.05133,0.0082 0.04921,0.0176 -0.0016,0.0054 -0.01323,0.01363 -0.02328,0.01455 -0.08202,0.0091 -0.164836,0.01709 -0.24765,0.024 -0.01006,9.52e-4 -0.02302,-0.0052 -0.03466,-0.0082 -0.02381,-0.006 -0.04498,-0.01556 -0.07011,-0.01715 -0.02514,-0.0016 -0.0545,0.0045 -0.08202,0.0069 -0.02778,0.0024 -0.05689,0.0078 -0.08202,0.0055 -0.0254,-0.0023 -0.04577,-0.01228 -0.06932,-0.01857 -0.01111,-0.003 -0.02619,-0.0073 -0.03545,-0.006 -0.06085,0.01003 -0.106627,-8.21e-4 -0.150548,-0.01566 -0.0093,-0.003 -0.02513,-0.0048 -0.03704,-0.0039 -0.0971,0.0083 -0.19341,0.01773 -0.290512,0.02678 -0.03942,0.0038 -0.07144,-0.0081 -0.08043,-0.02913 -0.0045,-0.01177 -0.01296,-0.02347 -0.01323,-0.03535 -5.29e-4,-0.02159 -0.0471,-0.03241 -0.08043,-0.02913 -0.0553,0.0049 -0.11139,0.009 -0.165894,0.01564 -0.04418,0.0053 -0.08202,0.0019 -0.112712,-0.0104 -0.03545,-0.01394 -0.07567,-0.01016 -0.115888,-0.0053 -0.0299,0.0036 -0.0381,0.01561 -0.03572,0.04546 0.0021,0.02408 -0.01191,0.03193 -0.06641,0.03715 -0.06853,0.0066 -0.138112,0.01323 -0.207698,0.01876 -0.01085,9.79e-4 -0.02355,-0.0049 -0.0344,-0.0079 -0.02381,-0.0059 -0.04498,-0.0159 -0.07011,-0.01749 -0.02514,-0.0019 -0.0545,0.0041 -0.08202,0.0069 -0.02778,0.0024 -0.05689,0.0082 -0.08202,0.0062 -0.0254,-0.002 -0.04657,-0.01228 -0.06932,-0.01857 -0.01111,-0.003 -0.02461,-0.0074 -0.03545,-0.0064 -0.0553,0.0041 -0.110596,0.0097 -0.165629,0.01492 -0.06218,0.0057 -0.06218,0.0057 -0.150548,-0.01458 -0.04048,-0.0091 -0.0807,-3.18e-4 -0.120121,0.0034 -0.0418,0.0038 -0.08123,0.0062 -0.1143,-0.0075 -0.02196,-0.0089 -0.0463,-0.01405 -0.07223,-0.01167 -0.06959,0.0059 -0.138113,0.01286 -0.207698,0.01876 -0.01164,9.78e-4 -0.02778,-4.5e-4 -0.03704,-0.0035 -0.04471,-0.0141 -0.08864,-0.025 -0.150548,-0.01603 -0.05344,0.0077 -0.111389,0.0094 -0.164835,0.01672 -0.02937,0.0039 -0.0426,0.01572 -0.03651,0.02458 0.0034,0.0046 0.02117,0.0096 0.03307,0.0093 0.02672,-2.65e-4 0.05609,-0.0063 0.08123,-0.0047 0.05212,0.0031 0.07885,0.03278 0.14658,0.02297 0.04022,-0.0059 0.08202,-0.0087 0.123825,-0.01111 0.01085,-6.09e-4 0.02275,0.006 0.03466,0.0093 0.03387,0.009 0.0635,0.0209 0.111919,0.01331 0.04022,-0.006 0.08281,-0.0084 0.123825,-0.01217 0.06535,-0.0062 0.06535,-0.0058 0.150548,0.01421 0.04048,0.0095 0.0807,3.44e-4 0.119856,-0.0031 0.02937,-0.0025 0.05689,-0.0067 0.0807,-0.0022 0.03625,0.0067 0.06244,0.02342 0.106892,0.02133 0.04207,-0.002 0.08308,-0.008 0.124883,-0.01077 0.02593,-0.0017 0.05027,0.0036 0.0717,0.01278 0.02196,0.0092 0.04551,0.01302 0.07382,0.01021 0.04127,-0.0038 0.08308,-0.0084 0.124883,-0.01114 0.01164,-6.09e-4 0.02513,0.0023 0.03625,0.005 0.02355,0.0059 0.0463,0.01299 0.06932,0.01931 0.04101,-0.0031 0.08281,-0.0048 0.123031,-0.01 0.03096,-0.0039 0.05265,-0.003 0.07805,0.0036 0.03202,0.009 0.05847,0.02567 0.110331,0.01622 0.02593,-0.0046 0.05609,-0.0042 0.08202,-0.0084 0.03175,-0.0054 0.05371,-0.0041 0.07646,0.0062 0.04339,0.01953 0.0971,0.01868 0.152135,0.0095 0.06032,-0.01 0.105834,-9.53e-4 0.151342,0.01384 0.04815,0.01548 0.04815,0.01511 0.08599,0.05421 0.01111,0.01127 0.04233,0.01595 0.06826,0.01323 0.04366,-0.0046 0.08123,-0.0037 0.113506,0.0093 0.03387,0.014 0.07408,0.01127 0.115094,0.0064 0.0545,-0.0066 0.108744,-0.01254 0.153723,0.0073 0.02196,0.0096 0.04551,0.01156 0.07488,0.0084 0.08281,-0.0084 0.166687,-0.01423 0.247915,-0.024 0.04921,-0.0062 0.07805,0.0047 0.111918,0.01368 0.04551,0.01228 0.09525,0.02302 0.09604,0.05146 0,0.0047 0.01191,0.0098 0.02196,0.01318 0.02196,0.0071 0.04577,0.01299 0.06853,0.01969 0.0336,0.01003 0.06667,0.01828 0.112712,0.01148 0.03995,-0.0056 0.08282,-0.008 0.123825,-0.0122 0.04101,-0.0042 0.07858,-0.0068 0.115888,0.006 0.04313,0.0145 0.0889,0.02823 0.137583,0.03866 0.03466,0.0075 0.07964,-0.0076 0.116681,0.0027 0.02302,0.0063 0.04498,0.01376 0.06932,0.01897 0.01005,0.0023 0.02593,1.05e-4 0.03942,-9e-4 0.02778,-0.0021 0.05609,-0.0038 0.08281,-0.008 0.03096,-0.0047 0.0545,-0.0045 0.07832,0.0033 0.02196,0.0071 0.04392,0.01699 0.06906,0.01857 0.03784,0.0024 0.07937,-0.01297 0.117475,0.0027 0.01958,0.0079 0.04419,0.01521 0.06932,0.01714 0.02514,0.002 0.0545,-0.0041 0.08123,-0.0044 0.01191,-2.65e-4 0.02619,0.0052 0.03307,0.0097 0.0042,0.0024 -0.0016,0.0094 -0.0074,0.01312 -0.0074,0.0045 -0.01799,0.01048 -0.0291,0.01146 -0.08282,0.0084 -0.165629,0.01566 -0.248444,0.02365 -0.04948,0.0047 -0.04948,0.0047 -0.149754,-0.01569 -0.02355,-0.0048 -0.04974,-0.0032 -0.07885,0 -0.03942,0.0041 -0.07964,0.01116 -0.120915,0.0056 -0.05397,-0.02326 -0.120385,-0.02392 -0.190764,-0.01297 -0.0291,0.0046 -0.05609,0.0052 -0.07805,-0.0011 -0.0463,-0.01265 -0.09525,-0.02413 -0.13679,-0.03937 -0.03201,-0.01188 -0.0471,-0.01262 -0.06032,0.005 -0.004,0.0055 -0.0079,0.01135 -0.0071,0.01638 0.0056,0.01789 0.01508,0.0353 0.02064,0.05318 0.0019,0.005 -0.0048,0.0109 -0.009,0.0164 -0.01297,0.01543 -0.03069,0.01474 -0.06032,0.0028 -0.02963,-0.01193 -0.06509,-0.01939 -0.111919,-0.01257 -0.03995,0.0059 -0.08361,0.0062 -0.123825,0.01254 -0.06191,0.0093 -0.105833,-0.0012 -0.150548,-0.01566 -0.0093,-0.003 -0.02513,-0.0045 -0.03704,-0.0035 -0.124619,0.01111 -0.248709,0.02331 -0.373327,0.03442 -0.02672,0.0024 -0.05133,-0.0024 -0.0725,-0.01169 -0.02196,-0.0092 -0.04657,-0.01371 -0.07329,-0.01127 -0.110596,0.01005 -0.220927,0.01942 -0.331523,0.0313 -0.04524,0.005 -0.08123,0.0011 -0.112712,-0.01077 -0.02355,-0.0088 -0.04551,-0.01122 -0.07488,-0.0095 -0.03175,0.0018 -0.05424,0.0059 -0.07012,0.01672 -0.01482,0.01042 -0.0037,0.0163 0.0299,0.02344 0.03625,0.0078 0.07012,0.0182 0.104775,0.02752 0.02752,-0.0021 0.0553,-0.0056 0.08202,-0.0059 0.01191,-2.65e-4 0.02275,0.006 0.03466,0.0093 0.03387,0.0097 0.06509,0.01939 0.112713,0.01254 0.04022,-0.0059 0.08281,-0.008 0.123825,-0.01217 0.05715,-0.0053 0.05715,-0.0053 0.149754,0.01532 0.02355,0.0052 0.04868,0.0043 0.07885,3.7e-4 0.02593,-0.0031 0.05292,0.0013 0.0717,0.01169 0.0077,0.0042 0.0053,0.0114 -0.01005,0.03551 2.64e-4,0.01765 0.01773,0.0093 0.02328,-0.0023 0.009,-0.01678 -0.0087,-0.02175 -0.04207,-0.01201 -0.02328,0.007 -0.03493,0.01664 -0.02884,0.02408 0.0034,0.0039 0.01958,0.0085 0.04763,-0.0097 0.07329,-0.02326 0.129381,-0.02707 0.182827,-0.03405 0.03201,-0.0039 0.05212,-0.003 0.07752,0.0058 0.03043,0.01045 0.06085,0.02164 0.110066,0.01476 0.05371,-0.0077 0.110596,-0.0097 0.1651,-0.01635 0.05001,-0.0062 0.07646,0.0091 0.10848,0.0177 0.03889,0.01027 0.08149,-0.0033 0.116681,0.0024 0.03704,0.0056 0.0635,0.02088 0.106362,0.02278 0.06191,-0.01111 0.1016,0.006 0.148961,0.0168 0.03704,0.0082 0.08043,-7.67e-4 0.119856,-0.0056 0.04418,-0.0053 0.08123,-0.0022 0.112448,0.01003 0.03572,0.01397 0.07514,0.0098 0.115094,0.0057 0.09393,-0.0093 0.0971,-0.01048 0.152135,0.0081 0.03969,0.01349 0.07726,0.0062 0.116681,0.0035 0.03466,0.0089 0.06853,0.0186 0.104775,0.02643 0.0093,0.002 0.02672,-0.0021 0.04101,-0.0035 0.04101,-0.0038 0.08281,-0.0076 0.123825,-0.01146 0.02778,-0.0024 0.05689,-0.0085 0.08202,-0.0069 0.0254,0.002 0.04657,0.01191 0.06932,0.01823 0.02276,0.0063 0.04657,0.01262 0.06853,0.01934 0.0336,0.01003 0.06588,0.01831 0.112713,0.01183 0.03995,-0.0056 0.08202,-0.008 0.123825,-0.01217 0.05265,-0.0052 0.05107,-0.004 0.149754,0.01532 0.05292,0.01066 0.107156,-0.005 0.160867,-0.0076 0.02672,-0.0013 0.05292,0.002 0.0717,0.01206 0.0077,0.0041 0.0053,0.0114 0.0079,0.01746 -0.138112,0.01286 -0.277283,0.02429 -0.413808,0.03926 -0.05265,0.0059 -0.08043,-0.0064 -0.109273,-0.01659 -0.04736,-0.01619 -0.109008,0.0104 -0.153987,-0.0109 -0.02699,-0.0127 -0.06588,-0.01939 -0.111655,-0.01185 -0.02672,0.0042 -0.0553,0.0045 -0.08308,0.0084 -0.07011,0.0095 -0.134673,0.01135 -0.191558,-0.0122 -0.01931,-0.0082 -0.0471,-0.01225 -0.06747,-0.02008 -0.02381,-0.0085 -0.04657,-0.01299 -0.07408,-0.01056 -0.124883,0.01148 -0.248708,0.02294 -0.372533,0.03511 -0.01085,9.79e-4 -0.0217,0.0066 -0.03096,0.01079 -0.02328,0.01061 -0.01535,0.01834 0.02249,0.02397 0.0127,0.0019 0.02275,0.0063 0.03466,0.0097 0.02275,0.0063 0.04392,0.01664 0.06906,0.01857 0.0254,0.002 0.0545,-0.0038 0.08228,-0.0062 0.02752,-0.0024 0.05689,-0.0085 0.08202,-0.0069 0.02513,0.002 0.0463,0.01191 0.07011,0.01786 0.01085,0.003 0.02434,0.0081 0.03519,0.0075 0.0553,-0.0034 0.109802,-0.0086 0.1651,-0.01312 0.03466,0.0089 0.06429,0.0223 0.105569,0.02461 0.02593,0.0016 0.05345,-0.003 0.08043,-0.0029 0.01164,1.06e-4 0.02699,0.0052 0.03281,0.0097 0.0034,0.0028 -0.0071,0.01027 -0.01561,0.01405 -0.03148,0.01439 -0.07514,0.01286 -0.114565,0.01807 -0.0426,0.0057 -0.08123,0.0051 -0.1143,-0.0082 -0.02196,-0.0088 -0.0463,-0.01333 -0.07329,-0.01093 -0.06932,0.0063 -0.138113,0.01323 -0.207434,0.01876 -0.01191,0.001 -0.02619,-0.0019 -0.03704,-0.0042 -0.08864,-0.01995 -0.08864,-0.02069 -0.150548,-0.01461 -0.09128,0.0089 -0.09128,0.0089 -0.152929,-0.0088 -0.01191,-0.0033 -0.02461,-0.0099 -0.03466,-0.0093 -0.0971,0.008 -0.19341,0.0159 -0.289718,0.02638 -0.03175,0.0032 -0.05371,0.0038 -0.07726,-0.0051 -0.02037,-0.0075 -0.04392,-0.01593 -0.06932,-0.01752 -0.02593,-0.0016 -0.05424,0.0045 -0.08202,0.0069 -0.02752,0.0024 -0.05689,0.0078 -0.08123,0.0055 -0.02514,-0.0023 -0.04736,-0.01188 -0.06932,-0.01857 -0.02275,-0.007 -0.0471,-0.0061 -0.07805,-0.0026 -0.09525,0.01045 -0.09631,0.0094 -0.191559,-0.01074 -0.01085,-0.0023 -0.02513,-0.0048 -0.03704,-0.0039 -0.06932,0.0059 -0.138113,0.01289 -0.207698,0.01879 -0.02672,0.0024 -0.05265,-0.0017 -0.07144,-0.01169 -0.0077,-0.0042 -0.0053,-0.0114 -0.01058,-0.02535 -0.0061,-0.0031 7.94e-4,0.0025 0.0026,0.0079 0.01244,-10e-4 0.02752,-6.35e-4 0.03678,-0.0037 0.02328,-0.0074 0.03493,-0.01664 0.02884,-0.02405 -0.0034,-0.0039 -0.01958,-0.0086 -0.02963,-0.0083 -0.01852,4.24e-4 -0.03413,0.0087 -0.03863,0.02823 -0.05265,0.0131 -0.108744,0.01688 -0.163248,0.02389 -0.03175,0.0043 -0.05186,0.003 -0.07726,-0.0058 -0.03043,-0.01082 -0.06165,-0.02127 -0.111125,-0.01439 -0.05345,0.0077 -0.110596,0.01008 -0.16563,0.01638 -0.06376,0.0072 -0.09208,-0.02455 -0.145785,-0.02262 -0.0553,0.002 -0.110596,0.0094 -0.165894,0.01495 -0.04842,0.0047 -0.04842,0.0047 -0.149489,-0.0164 -0.03731,-0.0078 -0.08043,0.0058 -0.116682,-0.0024 -0.02461,-0.0052 -0.04577,-0.01336 -0.06932,-0.01894 -0.01006,-0.0023 -0.02619,-0.0019 -0.03863,-9.26e-4 -0.06959,0.0059 -0.139964,0.0104 -0.206904,0.01984 -0.07594,0.01109 -0.134144,0.0023 -0.189177,-0.01767 -0.06853,0.0055 -0.138112,0.0093 -0.205846,0.01765 -0.04948,0.0062 -0.07832,-0.005 -0.111918,-0.01402 -0.01191,-0.003 -0.02222,-0.0081 -0.03466,-0.0093 -0.0127,-0.0012 -0.02778,0.0021 -0.04101,0.0034 -0.0553,0.0052 -0.112448,0.0083 -0.165894,0.01603 -0.06615,0.0098 -0.09181,-0.01916 -0.14314,-0.02159 -0.03387,0.01841 -0.05186,0.04294 -0.119591,0.04628 -0.05556,0.0027 -0.110596,0.0097 -0.165894,0.01492 -0.02778,0.0024 -0.0553,0.0052 -0.08281,0.0076 -0.04445,0.0043 -0.06509,0.01876 -0.0553,0.04014 0.0053,0.01177 0.0098,0.02355 0.01402,0.03532 0.009,0.02103 -0.01164,0.03953 -0.04683,0.04284 -0.0971,0.009 -0.19341,0.01844 -0.290512,0.02678 -0.02593,0.0024 -0.05107,-0.0032 -0.0725,-0.01241 -0.02196,-0.0092 -0.0463,-0.01299 -0.07303,-0.01058 -0.0971,0.0091 -0.193411,0.01844 -0.290513,0.02678 -0.01111,9.79e-4 -0.0254,-0.0023 -0.03625,-0.005 -0.02355,-0.0059 -0.04657,-0.01297 -0.06932,-0.01929 -0.0553,0.0045 -0.109803,0.0079 -0.164042,0.01344 -0.08811,0.0085 -0.08811,0.0088 -0.152929,-0.0095 -0.01191,-0.0033 -0.02381,-0.0099 -0.03466,-0.0093 -0.0418,0.0024 -0.08281,0.0069 -0.124883,0.01114 -0.123031,0.01214 -0.123031,0.01214 -0.159279,0.0022 -0.03307,-0.0093 -0.06271,-0.0209 -0.111919,-0.01402 -0.05345,0.0077 -0.110596,0.01117 -0.165894,0.01601 -0.04101,0.0035 -0.08202,0.0073 -0.123031,0.0089 -0.01085,5.83e-4 -0.02275,-0.006 -0.03466,-0.0093 -0.03387,-0.0104 -0.06668,-0.01865 -0.112713,-0.01148 -0.02672,0.0042 -0.0553,0.0056 -0.08281,0.008 -0.07197,0.0067 -0.07197,0.0067 -0.190765,-0.01222 -0.01191,-0.0019 -0.02619,-0.0041 -0.03784,-0.0028 -0.0971,0.0087 -0.193411,0.01807 -0.290513,0.02641 -0.01164,10e-4 -0.02593,-8.46e-4 -0.03784,-0.0024 -0.133086,-0.01786 -0.133086,-0.01786 -0.27358,-0.0046 -0.05371,0.0048 -0.0553,0.0063 -0.111918,-0.01148 -0.0254,-0.0077 -0.0463,-0.01119 -0.07567,-0.008 -0.110596,0.01116 -0.221986,0.01945 -0.331523,0.03202 -0.04948,0.0054 -0.07805,-0.0047 -0.111919,-0.01365 -0.01191,-0.003 -0.02461,-0.0099 -0.03466,-0.0093 -0.110596,0.0093 -0.220927,0.02014 -0.331523,0.0295 -0.01005,9.53e-4 -0.02275,-0.006 -0.03466,-0.0089 -0.02275,-0.0059 -0.04471,-0.01519 -0.07011,-0.01677 -0.02593,-0.0016 -0.05424,0.0045 -0.08281,0.0069 -0.06959,0.0063 -0.06959,0.0059 -0.150548,-0.01349 -0.01085,-0.0027 -0.0254,-0.0063 -0.03625,-0.0053 -0.110595,0.0097 -0.221985,0.01836 -0.331522,0.0313 -0.06271,0.0072 -0.105834,-0.0023 -0.150548,-0.0164 -0.0093,-0.003 -0.02514,-0.0041 -0.03704,-0.0031 -0.124619,0.01111 -0.248708,0.02328 -0.373327,0.0344 -0.02593,0.0024 -0.05133,-0.0031 -0.0725,-0.01204 -0.03387,-0.014 -0.07329,-0.0113 -0.115094,-0.0071 -0.09631,0.0097 -0.0971,0.0094 -0.154516,-0.0066 -0.01191,-0.0033 -0.02196,-0.0078 -0.03466,-0.0093 -0.01164,-0.0015 -0.02672,-1.05e-4 -0.03942,9e-4 -0.0553,0.0049 -0.110596,0.01008 -0.165629,0.01529 -0.0553,0.0052 -0.111654,0.0086 -0.165894,0.01601 -0.06694,0.0091 -0.09922,-0.01357 -0.146579,-0.02331 -0.06853,0.0062 -0.138906,0.01072 -0.206639,0.01982 -0.05186,0.0069 -0.07673,-0.0083 -0.111125,-0.01582 -0.01191,-0.0026 -0.02461,-0.0085 -0.03545,-0.0075 -0.124883,0.01077 -0.249502,0.02222 -0.373591,0.03477 -0.03016,0.0029 -0.05027,4.23e-4 -0.07567,-0.0076 -0.05662,-0.01815 -0.059,-0.01736 -0.152929,-0.008 -0.04101,0.0042 -0.08017,0.008 -0.115888,-0.006 -0.03122,-0.01259 -0.06906,-0.01497 -0.113506,-0.0097 -0.05424,0.0066 -0.110331,0.0108 -0.165629,0.01566 -0.0553,0.0052 -0.110596,0.01185 -0.165894,0.01492 -0.04445,0.0028 -0.0717,-0.01349 -0.106892,-0.02133 -0.01111,-0.0023 -0.02619,-0.0023 -0.03863,-0.0013 -0.0553,0.0045 -0.112448,0.0083 -0.165893,0.01566 -0.06535,0.0091 -0.101865,-0.0099 -0.148167,-0.0204 -0.01005,-0.0023 -0.02699,-4.76e-4 -0.03942,9e-4 -0.0971,0.0087 -0.19341,0.01807 -0.290513,0.02712 -0.03466,-0.0089 -0.07011,-0.01749 -0.104775,-0.02641 -0.05503,0.0048 -0.110331,0.01005 -0.165629,0.01492 -0.0418,0.0038 -0.08467,0.0059 -0.123825,0.01217 -0.05106,0.0084 -0.07673,-0.008 -0.111125,-0.01548 -0.01191,-0.0026 -0.02461,-0.0084 -0.03545,-0.0075 -0.06959,0.0055 -0.139171,0.01143 -0.207698,0.0191 -0.06535,0.0076 -0.09208,-0.02418 -0.145785,-0.0226 -0.0553,0.0016 -0.112184,0.0076 -0.165629,0.01529 -0.06191,0.0089 -0.105834,-0.0016 -0.150548,-0.01603 -0.0093,-0.003 -0.0254,-0.0045 -0.03704,-0.0035 -0.06959,0.0059 -0.138112,0.01286 -0.207698,0.01876 -0.01164,9.79e-4 -0.02593,-5.03e-4 -0.03784,-0.0024 -0.133086,-0.01823 -0.133086,-0.01857 -0.190765,-0.01297 -0.04101,0.0038 -0.08281,0.0084 -0.124619,0.01114 -0.01191,9.79e-4 -0.02619,-0.0019 -0.03704,-0.0046 -0.08784,-0.01995 -0.08784,-0.02032 -0.150548,-0.01458 -0.0553,0.0052 -0.110596,0.01042 -0.165894,0.01566 -0.03466,-0.0089 -0.07012,-0.01749 -0.10451,-0.02643 -0.06879,0.0062 -0.139171,0.01143 -0.206905,0.01945 -0.03175,0.0036 -0.05292,0.003 -0.07726,-0.0054 -0.03043,-0.01011 -0.06112,-0.02201 -0.111125,-0.01476 -0.05345,0.0077 -0.110596,0.0097 -0.1651,0.01635 -0.06509,0.008 -0.0926,-0.02418 -0.145521,-0.02262 -0.0553,0.0016 -0.112183,0.0076 -0.165893,0.01529 -0.06191,0.009 -0.105569,-0.0015 -0.150548,-0.01601 -0.0093,-0.003 -0.02514,-0.0045 -0.03704,-0.0035 -0.1524,0.01392 -0.303742,0.02781 -0.456142,0.04241 -0.09393,0.009 -0.09393,0.0093 -0.272785,-0.0064 -0.0127,-0.0012 -0.02619,-0.0023 -0.03889,-0.0013 -0.05503,0.0045 -0.112183,0.0083 -0.165629,0.01566 -0.06535,0.009 -0.101865,-0.0096 -0.148167,-0.0204 -0.01005,-0.0023 -0.02593,-5.03e-4 -0.03942,5.29e-4 -0.0418,0.0035 -0.08281,0.0077 -0.124618,0.01148 -0.0553,0.0052 -0.110596,0.01042 -0.165894,0.01564 -0.03466,-0.0086 -0.07012,-0.01749 -0.104775,-0.02606 -0.06853,0.0062 -0.138906,0.01037 -0.20664,0.01947 -0.05186,0.0069 -0.07646,-0.0076 -0.111125,-0.01548 -0.01191,-0.0026 -0.02461,-0.0084 -0.03545,-0.0078 -0.124883,0.01074 -0.249502,0.02186 -0.373327,0.03477 -0.05106,0.0055 -0.07488,-0.01019 -0.109537,-0.01767 -0.01191,-0.0022 -0.0254,-0.0066 -0.03625,-0.0057 -0.08282,0.0069 -0.165894,0.01492 -0.248709,0.02294 -0.04683,0.0047 -0.04683,0.0047 -0.149754,-0.01532 -0.01164,-0.0023 -0.02513,-0.0045 -0.03704,-0.0035 -0.262731,0.024 -0.524933,0.04903 -0.787664,0.073 -0.02699,0.0024 -0.05133,-0.0024 -0.0725,-0.01167 -0.02196,-0.0092 -0.04657,-0.01371 -0.07329,-0.0113 -0.110595,0.01008 -0.221985,0.01945 -0.331522,0.0313 -0.04524,0.005 -0.08149,0.0011 -0.112713,-0.01077 -0.02381,-0.0088 -0.04551,-0.01191 -0.07488,-0.0091 -0.0553,0.0056 -0.110596,0.01042 -0.165894,0.01564 -0.05503,0.0052 -0.110331,0.01042 -0.165629,0.01566 -0.0553,0.0052 -0.11139,0.0087 -0.165894,0.01601 -0.06694,0.0091 -0.100012,-0.01249 -0.146314,-0.0226 -0.08308,0.0073 -0.165894,0.01455 -0.247915,0.0222 -0.110596,0.01005 -0.221192,0.02085 -0.331523,0.03056 -0.01005,9.52e-4 -0.02275,-0.0052 -0.03466,-0.0082 -0.03466,-0.0082 -0.06006,-0.02024 -0.111125,-0.01511 -0.247915,0.02471 -0.497417,0.04657 -0.745861,0.07096 -0.05212,0.0051 -0.07514,-0.0098 -0.110331,-0.0173 -0.01191,-0.0023 -0.0254,-0.007 -0.03625,-0.006 -0.138112,0.01212 -0.276489,0.02535 -0.414602,0.03821 -0.05609,0.0052 -0.05609,0.0052 -0.150548,-0.01495 -0.01085,-0.0022 -0.02513,-0.0052 -0.03704,-0.0042 -0.179917,0.01632 -0.35904,0.03336 -0.539221,0.05006 -0.02672,0.0024 -0.05107,-0.0021 -0.07303,-0.0113 -0.02143,-0.0092 -0.04657,-0.01408 -0.0725,-0.01167 -0.165894,0.01529 -0.332581,0.03024 -0.497417,0.04659 -0.04445,0.0046 -0.08123,0.0022 -0.113506,-0.01003 -0.02275,-0.0088 -0.04551,-0.0123 -0.07408,-0.0095 -0.248709,0.02328 -0.497417,0.04585 -0.745861,0.07025 -0.04789,0.0047 -0.08149,-0.0014 -0.111919,-0.01259 -0.02461,-0.0088 -0.04551,-0.01013 -0.07567,-0.008 -0.03202,0.0025 -0.05107,0.0069 -0.06853,0.0181 -0.02222,0.01455 -0.03598,0.03252 -0.08969,0.03482 -0.0553,0.0023 -0.11139,0.0079 -0.165894,0.01529 -0.05186,0.0073 -0.07646,-0.0084 -0.109537,-0.01733 -0.02434,-0.0063 -0.0471,-0.0069 -0.07805,-0.0029 -0.02831,0.0035 -0.04577,0.01003 -0.06244,0.02193 -0.03625,0.02529 -0.03969,0.02537 -0.0852,0.01093 -0.02461,-0.0077 -0.04657,-0.01371 -0.07329,-0.01164 -0.110595,0.0097 -0.221191,0.02014 -0.331523,0.03093 -0.06376,0.0061 -0.06456,0.0069 -0.112712,-0.01003 -0.02381,-0.0085 -0.04657,-0.01228 -0.07408,-0.0095 -0.304007,0.02852 -0.607748,0.0563 -0.911755,0.08591 -0.04683,0.0047 -0.07884,-0.0022 -0.112712,-0.0122 -0.01111,-0.0034 -0.02196,-0.0082 -0.03466,-0.0093 -0.01244,-0.0011 -0.02672,6.08e-4 -0.04022,0.0016 -0.220927,0.0205 -0.442913,0.04032 -0.663046,0.0626 -0.05027,0.0051 -0.07726,-0.0058 -0.111919,-0.01437 -0.01191,-0.003 -0.02196,-0.0078 -0.03466,-0.0089 -0.0127,-7.94e-4 -0.02752,0.0021 -0.04101,0.0035 -0.221191,0.0205 -0.442912,0.0403 -0.663045,0.0626 -0.05292,0.0052 -0.07594,-0.0095 -0.110332,-0.01659 -0.01191,-0.0026 -0.02461,-0.0077 -0.03545,-0.0068 -0.06959,0.0055 -0.138112,0.01249 -0.207698,0.01876 -0.165629,0.01564 -0.331523,0.03059 -0.497152,0.04659 -0.06376,0.0061 -0.09208,-0.02529 -0.145785,-0.02262 -0.06959,0.0034 -0.138113,0.01214 -0.207698,0.01876 -0.0553,0.0052 -0.110596,0.01008 -0.165629,0.01566 -0.0545,0.0052 -0.0545,0.0052 -0.190765,-0.01259 -0.01191,-0.0015 -0.02619,-0.0037 -0.03784,-0.0027 -0.193411,0.01773 -0.387879,0.03545 -0.580232,0.05424 -0.04445,0.0043 -0.08149,0.0033 -0.113506,-0.0093 -0.02302,-0.0089 -0.04657,-0.01299 -0.07408,-0.01021 -0.290513,0.02712 -0.580231,0.05424 -0.870744,0.08102 -0.01085,9.52e-4 -0.0254,-0.0023 -0.03625,-0.005 -0.02355,-0.0059 -0.04657,-0.01299 -0.06932,-0.01931 -0.01667,0.0087 -0.0381,0.01672 -0.04895,0.02633 -0.01482,0.01294 -0.03477,0.01699 -0.06657,0.01987 -0.03183,0.0029 -0.05196,0.0026 -0.07734,-0.0062 -0.03045,-0.01082 -0.0617,-0.01913 -0.111099,-0.01439 -0.3039,0.02958 -0.607854,0.05702 -0.911754,0.08625 -0.05024,0.0047 -0.07408,-0.01056 -0.109485,-0.01805 -0.0118,-0.0023 -0.02532,-0.0059 -0.03622,-0.0049 -0.124751,0.01111 -0.248656,0.02294 -0.373407,0.0344 -0.34581,0.03236 -0.691594,0.06361 -1.036531,0.09737 -0.06279,0.0061 -0.105754,-0.0019 -0.150575,-0.01638 -0.0093,-0.003 -0.02527,-0.0044 -0.03699,-0.0035 -0.48395,0.04485 -0.967873,0.09004 -1.450975,0.135228 -0.02596,0.0024 -0.05128,-0.0028 -0.07244,-0.01167 -0.02204,-0.0092 -0.04646,-0.01336 -0.07324,-0.01095 -0.221059,0.0205 -0.442092,0.04104 -0.663125,0.06189 -0.05524,0.0052 -0.05609,0.0056 -0.113506,-0.01037 -0.01183,-0.0033 -0.02455,-0.0099 -0.03376,-0.009 -0.01926,0.0023 -0.03752,0.01167 -0.05064,0.02421 -0.01312,0.01326 -0.034,0.01733 -0.06498,0.02056 -0.0318,0.0032 -0.05279,0.0027 -0.07731,-0.0054 -0.03127,-0.01008 -0.06003,-0.01987 -0.110279,-0.01513 -0.63545,0.06054 -1.270952,0.119248 -1.906402,0.179414 -0.05109,0.0048 -0.07493,-0.0098 -0.110331,-0.01728 -0.0118,-0.0023 -0.02363,-0.0056 -0.03622,-0.006 -0.01344,-3.97e-4 -0.02762,0.0021 -0.04104,0.0035 -1.036531,0.09665 -2.073037,0.193649 -3.109595,0.290301 -0.06194,0.0057 -0.06112,0.0057 -0.12827,0.04038 -0.0083,0.0041 -0.01908,0.0098 -0.03082,0.01077 -0.317288,0.03027 -0.635449,0.05982 -0.953611,0.08938 -0.138165,0.01286 -0.276278,0.02609 -0.414443,0.03858 -0.0494,0.0044 -0.0494,0.0044 -0.166767,0.04591 -0.01,0.0035 -0.02164,0.0081 -0.03336,0.009 -0.552582,0.05181 -1.105191,0.103611 -1.65862,0.154728 -0.04355,0.0039 -0.07861,0.01114 -0.09835,0.02887 -0.01397,0.01257 -0.03225,0.02019 -0.05987,0.02297 -0.386821,0.03614 -0.773615,0.07268 -1.161283,0.108136 -0.04604,0.0043 -0.0735,0.01497 -0.09581,0.03061 -0.0074,0.0052 -0.014,0.01111 -0.02482,0.01495 -0.01,0.0035 -0.02506,0.0049 -0.03762,0.0063 -0.331549,0.03093 -0.663072,0.0626 -0.995495,0.09247 -0.0494,0.0044 -0.06924,0.01815 -0.09324,0.03273 -0.0083,0.0049 -0.014,0.01148 -0.02482,0.01497 -0.01085,0.0031 -0.02678,0.0035 -0.04016,0.0045 -0.276304,0.02572 -0.552583,0.05181 -0.828887,0.07752 -0.05371,-5.82e-4 -0.06498,0.02056 -0.0907,0.03376 -0.0091,0.0045 -0.01569,0.01043 -0.02651,0.01355 -0.01167,0.0031 -0.0268,0.0031 -0.04104,0.0042 -0.221033,0.0205 -0.442066,0.0421 -0.663972,0.06154 -0.05106,0.0044 -0.06072,0.02299 -0.08811,0.03619 -0.0091,0.0042 -0.0182,0.0105 -0.02908,0.01183 -0.138139,0.0136 -0.276278,0.02646 -0.414443,0.03895 -0.04604,0.0043 -0.04604,0.0039 -0.126577,0.04141 -0.0091,0.0042 -0.01995,0.0087 -0.03164,0.01008 -0.206799,0.01982 -0.414444,0.03895 -0.622089,0.05842 -0.0268,0.0024 -0.04503,0.01146 -0.05818,0.024 -0.01312,0.01254 -0.03223,0.0209 -0.05903,0.02331 -0.165761,0.01566 -0.331549,0.03167 -0.497363,0.04622 -0.04604,0.0039 -0.07602,0.01363 -0.09578,0.03027 -0.01482,0.01257 -0.03313,0.0191 -0.06242,0.02193 -0.165788,0.01529 -0.33155,0.03167 -0.498184,0.04554 -0.04858,0.004 -0.07348,0.0168 -0.09324,0.03236 -0.01566,0.01259 -0.034,0.01733 -0.06498,0.02021 -0.303954,0.02778 -0.608727,0.05559 -0.911781,0.08551 -0.05106,0.0051 -0.07734,-0.0069 -0.111098,-0.01511 -0.0481,-0.01151 -0.09284,-0.02418 -0.0935,-0.05223 -1.06e-4,-0.0043 -0.01447,-0.0091 -0.02461,-0.01241 -0.07527,-0.02529 -0.07527,-0.02529 -0.08768,-0.05382 -0.0071,-0.01749 -0.01508,-0.03529 -0.02135,-0.05315 -0.01159,-0.02926 -0.03863,-0.03622 -0.11565,-0.02905 -0.02762,0.0024 -0.05525,0.0056 -0.08289,0.0076 -0.04104,0.0034 -0.07234,-0.0077 -0.08038,-0.02916 -0.0045,-0.01177 -0.0098,-0.02352 -0.01423,-0.03532 0.04188,-0.0038 0.04101,-0.0042 0.113797,-0.04937 0.03061,-0.01908 0.03064,-0.01908 -0.02934,-0.03606 -0.02281,-0.0063 -0.04479,-0.01339 -0.06924,-0.01931 -0.01098,-0.0026 -0.02527,-0.0041 -0.03699,-0.0031 -0.06951,0.0059 -0.138165,0.01252 -0.206824,0.0191 -0.110517,0.01045 -0.110517,0.01042 -0.223758,-0.02371 -0.0093,-0.0027 -0.02365,-0.0078 -0.02204,-0.01066 0.0089,-0.01352 0.03141,-0.01979 0.0599,-0.02188 0.04188,-0.0031 0.08289,-0.0076 0.123904,-0.01146 0.02765,-0.0024 0.05527,-0.0052 0.08289,-0.0076 0.02569,-0.01426 0.05223,-0.0282 0.07623,-0.04278 0.03807,-0.02246 0.03805,-0.02318 -0.01513,-0.0371 -0.03379,-0.0093 -0.07006,-0.01749 -0.104643,-0.02606 -0.04104,0.0038 -0.08289,0.008 -0.123931,0.01146 -0.05191,0.0044 -0.07305,-0.002 -0.08699,-0.02503 -0.01222,-0.02024 0.0016,-0.03821 0.04178,-0.04344 0.04101,-0.0052 0.07953,-0.009 0.100066,-0.02783 0.01971,-0.01807 0.05477,-0.02572 0.09835,-0.02815 0.02765,-0.0017 0.05527,-0.0048 0.08289,-0.0077 0.03601,-0.0037 0.05487,-0.02249 0.04686,-0.04284 -0.0045,-0.0132 -0.01315,-0.02418 -0.04593,-0.0263 -0.145362,-0.0093 -0.147056,-0.0089 -0.219737,-0.03175 -0.0068,-0.002 -0.01193,-0.0084 -0.0095,-0.01164 0.0041,-0.0055 0.01312,-0.01363 0.02315,-0.01495 0.09625,-0.01011 0.192538,-0.0195 0.288846,-0.02707 0.03183,-0.0025 0.05527,-0.0056 0.06586,-0.01916 0.01468,-0.01871 0.0076,-0.03545 -0.02207,-0.04739 -0.0093,-0.0037 -0.02455,-0.0084 -0.03461,-0.0079 -0.110543,0.009 -0.220213,0.01976 -0.330756,0.02876 -0.01005,9.52e-4 -0.02863,-0.0047 -0.03294,-0.0093 -0.0086,-0.0084 0.0037,-0.02024 0.03299,-0.02487 0.03844,-0.0063 0.07787,-0.0075 0.103426,-0.02611 0.03548,-0.02638 0.07937,-0.05077 0.119062,-0.07615 0.0066,-0.0045 0.01736,-0.01302 0.01482,-0.01368 -0.02114,-0.0074 -0.04561,-0.01299 -0.0676,-0.02005 -0.03717,-0.01177 -0.0376,-0.0294 -0.02961,-0.04649 0.0064,-0.01384 0.03143,-0.01982 0.06247,-0.0205 0.01341,-3.18e-4 0.03019,-6.88e-4 0.04101,-0.0042 0.02834,-0.0086 0.03733,-0.01884 0.02289,-0.02609 -0.0085,-0.0041 -0.02371,-0.0099 -0.03376,-0.0089 -0.179202,0.01595 -0.359251,0.03157 -0.537527,0.05038 -0.05273,0.0055 -0.07736,-0.0076 -0.109458,-0.01659 -0.0245,-0.007 -0.0472,-0.0094 -0.07728,-0.0033 -0.02839,0.0057 -0.05612,0.0034 -0.074,-0.008 -0.01447,-0.0094 0.01048,-0.01823 0.07818,-0.02913 0.01254,-0.0021 0.02678,-0.0035 0.0359,-0.0073 0.09639,-0.04109 0.09639,-0.04143 0.163354,-0.048 0.0653,-0.0062 0.06533,-0.0065 0.09922,-0.02818 0.01572,-0.01008 0.03307,-0.02021 0.04794,-0.03061 0.0058,-0.0041 0.01569,-0.01154 0.01228,-0.0136 -0.01871,-0.01074 -0.04392,-0.0127 -0.07321,-0.0095 -0.06527,0.0076 -0.142531,0.0043 -0.176134,0.03929 -0.01312,0.01326 -0.034,0.01733 -0.06414,0.02016 -0.303114,0.02778 -0.606192,0.05699 -0.91015,0.08406 -0.0494,0.0044 -0.07173,0.0182 -0.09067,0.03339 -0.01649,0.01262 -0.03486,0.01664 -0.06668,0.01953 -0.03182,0.0029 -0.05697,0.0045 -0.07569,-0.0069 -0.01107,-0.0069 -0.0021,-0.01722 0.02285,-0.02789 0.03573,-0.01521 0.0286,-0.03305 0.01647,-0.04969 -0.0086,-0.01095 -0.03483,-0.01828 -0.06248,-0.01693 -0.04106,0.0024 -0.08038,0.0072 -0.115091,-0.0064 -0.02032,-0.0078 -0.04561,-0.01299 -0.06842,-0.01968 -0.04395,-0.01376 -0.08791,-0.02789 -0.148905,-0.01678 -0.04202,-0.0026 -0.07167,-0.01492 -0.105445,-0.02424 -0.05657,-0.01529 -0.06166,-0.0177 -0.02182,-0.03625 0.04483,-0.0208 0.009,-0.04593 0.03371,-0.06593 0.02635,-0.02146 0.06284,-0.04067 0.0951,-0.06083 0.0083,-0.0052 0.01571,-0.01008 0.02398,-0.01532 -0.01946,-0.0067 -0.03727,-0.01535 -0.06003,-0.01987 -0.0295,-0.0058 -0.04478,-0.01339 -0.04362,-0.03574 -0.006,-0.0031 -0.0033,0.0051 0.0035,0.0071 0.0076,0.002 0.02602,-2.38e-4 0.03518,-0.003 0.02333,-0.0074 0.03485,-0.01664 0.0288,-0.02405 -0.0034,-0.0039 -0.01948,-0.0086 -0.02955,-0.0083 -0.01845,4.23e-4 -0.0342,0.0087 -0.03878,0.02823 -0.09359,0.01691 -0.190714,0.0263 -0.287864,0.03426 -0.01005,9.52e-4 -0.02279,-0.0059 -0.03461,-0.0093 -0.03887,-0.01136 -0.03886,-0.01102 -0.1521621,-0.01203 -0.01175,-1.06e-4 -0.02779,-0.0048 -0.03378,-0.0097 -0.02483,-0.0214 -0.02454,-0.04553 -0.03682,-0.06866 0.02145,-0.01561 0.0429,-0.03085 0.0652,-0.04612 0.0446,-0.0309 0.1027031,-0.0585 0.1371701,-0.09205 -0.008,-0.01746 -0.01843,-0.03487 0.01814,-0.05009 0.104413,-0.0204 0.103579,-0.02037 0.131694,-0.03829 0.08022,-0.0508 0.159581,-0.101918 0.243168,-0.152056 0.02235,-0.01312 0.0222,-0.01995 -0.01818,-0.02445 -0.01261,-0.0011 -0.02606,-0.0012 -0.03946,-1.85e-4 -0.04187,0.0035 -0.08365,0.0109 -0.12478,0.0104 -0.04112,-1.33e-4 -0.07167,-0.01529 -0.105445,-0.02424 -0.03461,-0.0093 -0.06924,-0.01894 -0.103865,-0.0286 -0.03939,0.002 -0.07857,0.01294 -0.1183561,-0.0023 -0.03048,-0.01191 -0.06843,-0.02006 -0.10305,-0.02971 0.02537,-0.02794 0.07353,-0.0499 0.110713,-0.07488 0.03387,-0.02273 0.0347,-0.02238 0.1265631,-0.04138 0.04343,-0.0089 0.05758,-0.04993 0.02041,-0.06096 -0.04478,-0.01339 -0.09204,-0.02564 -0.137644,-0.03829 -0.03939,0.002 -0.07941,0.01262 -0.1175251,-0.0027 -0.02963,-0.01156 -0.06338,-0.01908 -0.111911,-0.01331 -0.082,0.0098 -0.165772,0.01566 -0.248645,0.02402 -0.02846,0.0028 -0.05954,0.0021 -0.0724,-0.0099 -0.0086,-0.0084 0.01546,-0.02088 0.04308,-0.02402 0.04185,-0.0046 0.07948,-0.0097 0.100034,-0.0282 0.01971,-0.01844 0.05648,-0.02469 0.100034,-0.0282 0.01172,-9.79e-4 0.02505,-0.0056 0.03082,-0.01005 0.02971,-0.02156 0.06284,-0.0403 0.127431,-0.04106 0.02667,-0.0078 0.04071,-0.01712 0.03212,-0.02556 -0.0051,-0.0046 -0.02288,-0.01029 -0.03293,-0.0093 -0.06952,0.0052 -0.139044,0.01037 -0.206822,0.01839 -0.0318,0.0036 -0.05612,0.0049 -0.0765,-0.0055 -0.01442,-0.0069 -0.0071,-0.01675 0.01949,-0.02781 0.02328,-0.0095 0.02975,-0.02011 0.02779,-0.03231 -0.0049,-0.02834 -0.0302,-0.03604 -0.110672,-0.03241 -0.05783,0.0027 -0.0722,-0.0016 -0.08534,-0.02577 -0.0035,-0.0057 -0.01204,-0.01341 -0.0063,-0.01752 0.0355,-0.02527 0.05828,-0.05604 0.1259439,-0.06911 0.02674,-0.0049 0.05524,-0.0056 0.07179,-0.01529 0.01656,-0.0097 0.03141,-0.02088 0.04881,-0.0303 0.02156,-0.01127 0.0364,-0.0217 0.02618,-0.02831 -0.01705,-0.01185 -0.04391,-0.01233 -0.07484,-0.0073 -0.02675,0.0042 -0.05526,0.0052 -0.08288,0.008 -0.04939,0.0051 -0.08985,-0.0034 -0.09609,-0.01905 -0.0169,-0.04138 -0.03463,-0.08239 -0.04986,-0.123799 -0.0018,-0.005 0.0022,-0.01159 0.0088,-0.01606 0.02313,-0.01564 0.04797,-0.03061 0.07195,-0.0459 0.02812,-0.01757 0.07349,-0.01537 0.1119929,-0.01947 0.0544,-0.0059 0.05439,-0.0056 0.126555,-0.04178 0.0282,-0.01431 0.0778,-0.01003 0.106873,-0.02294 0.0091,-0.0042 0.02324,-0.01098 0.02064,-0.0145 -0.0035,-0.0046 -0.02031,-0.0078 -0.03294,-0.0097 -0.01179,-0.0019 -0.02607,-0.0027 -0.03862,-0.0013 -0.15239,0.01389 -0.3039189,0.0285 -0.4563179,0.04204 -0.02596,0.0024 -0.05465,-0.0049 -0.06414,-0.01582 -0.0095,-0.01021 -0.0072,-0.02289 -0.0092,-0.03471 0.02398,-0.01529 0.05133,-0.02961 0.07193,-0.04591 0.01565,-0.01262 0.03398,-0.01841 0.06583,-0.01987 0.04191,-0.002 0.0829,-0.0073 0.1297929,-0.01159 0.086,-0.05453 0.170265,-0.111522 0.262978,-0.166185 0.03725,-0.02209 0.02754,-0.04347 0.03456,-0.06633 0.0071,-0.02103 0.06332,-0.01908 0.10092,-0.02606 0.03007,-0.0057 0.03986,-0.01746 0.02793,-0.02511 -0.0068,-0.0045 -0.02203,-0.0096 -0.03377,-0.0093 -0.02768,6.35e-4 -0.05527,0.0045 -0.08291,0.0069 -0.02763,0.0024 -0.05953,0.0021 -0.08203,0.0087 -0.02167,0.0062 -0.03565,0.01881 -0.04967,0.02955 -0.01567,0.01188 -0.03653,0.01633 -0.06838,0.01778 -0.04108,0.0016 -0.08209,0.0058 -0.123129,0.0093 -0.04561,-0.01299 -0.0929,-0.02561 -0.1368479,-0.03937 -0.0085,-0.0027 -0.01033,-0.01093 -0.0096,-0.01632 0.0014,-0.01408 -0.01142,-0.02244 -0.03926,-0.02865 -0.02361,-0.0052 -0.0431,-0.01304 -0.06507,-0.01974 0.01655,-0.01011 0.03479,-0.0199 0.04796,-0.03064 0.02885,-0.0226 0.06538,-0.03926 0.129136,-0.04001 0.02483,-0.01461 0.04456,-0.03233 0.07704,-0.04281 0.03081,-0.01005 0.08386,-0.0019 0.106855,-0.02365 0.0115,-0.01072 0.02885,-0.02299 0.05139,-0.02781 0.0359,-0.0077 0.08295,-0.0051 0.103449,-0.02577 0.01231,-0.0118 0.03051,-0.02265 0.05477,-0.02609 0.0276,-0.0039 0.05609,-0.0052 0.07606,-0.01252 0.01082,-0.0039 0.02243,-0.0099 0.02231,-0.01492 -7.4e-5,-0.0032 -0.01695,-0.0079 -0.02874,-0.0098 -0.01096,-0.0023 -0.02528,-0.0037 -0.03784,-0.0027 -0.04188,0.0031 -0.08288,0.008 -0.124764,0.01111 -0.01172,9.79e-4 -0.0252,-0.0012 -0.03783,-0.0031 -0.03703,-0.0049 -0.03469,-0.01217 -0.0056,-0.0258 0.02906,-0.01326 0.04967,-0.02995 0.07364,-0.04524 0.02678,-0.0031 0.06034,-0.0028 0.07863,-0.01008 0.03077,-0.01185 0.0522,-0.02855 0.07703,-0.04315 0.02763,-0.0028 0.05612,-0.0041 0.08203,-0.0087 0.01087,-0.0017 0.01572,-0.0097 0.02484,-0.01461 0.01656,-0.0094 0.03053,-0.02265 0.05307,-0.02749 0.03675,-0.0073 0.08209,-0.0058 0.103441,-0.02611 0.01231,-0.0118 0.03131,-0.02447 0.05478,-0.02572 0.06538,-0.0029 0.0926,-0.02334 0.125709,-0.04284 0.02484,-0.01461 0.07868,-0.0086 0.106027,-0.02328 0.01824,-0.0094 0.03141,-0.02088 0.04966,-0.02992 0.0075,-0.0038 0.02335,-0.0059 0.03591,-0.0073 0.06864,-0.007 0.138155,-0.01249 0.20679,-0.01982 0.01088,-0.0013 0.02082,-0.007 0.02911,-0.01146 0.0174,-0.0098 0.02799,-0.02297 0.04965,-0.02958 0.02166,-0.0066 0.05269,-0.0073 0.07948,-0.0097 0.08625,-0.0074 0.093,-0.0061 0.131712,-0.03754 0.03129,-0.02556 0.109705,-0.0097 0.13507,-0.03765 0.01473,-0.01617 0.04209,-0.02974 0.09153,-0.03268 0.06955,-0.0041 0.138155,-0.01249 0.207653,-0.01876 0.06196,-0.0057 0.06112,-0.0057 0.127439,-0.04069 0.02984,-0.0158 0.07435,-0.01466 0.113697,-0.01844 0.04187,-0.0038 0.08034,-0.009 0.100055,-0.02746 0.01971,-0.0181 0.05649,-0.02469 0.09919,-0.02818 0.03934,-0.0034 0.08385,-0.0026 0.114538,-0.01773 0.07469,-0.03625 0.07385,-0.03659 0.126603,-0.04141 0.08289,-0.0076 0.165762,-0.01529 0.248656,-0.02328 0.05525,-0.0052 0.113109,-0.0072 0.164914,-0.01635 0.0376,-0.0066 0.0539,-0.02715 0.07789,-0.04175 0.06866,-0.007 0.137293,-0.01392 0.205952,-0.0205 0.09628,-0.0094 0.19341,-0.01807 0.290513,-0.02712 0.04162,-0.01463 0.0468,-0.04501 0.11721,-0.04805 0.04194,-0.0017 0.08292,-0.0073 0.124777,-0.01111 0.06948,-0.0066 0.138113,-0.01466 0.207645,-0.01876 0.05281,-0.003 0.06157,-0.02265 0.08895,-0.03551 0.0091,-0.0045 0.01738,-0.01085 0.02826,-0.01217 0.108797,-0.01254 0.221113,-0.01725 0.327264,-0.03442 0.01087,-0.0017 0.02077,-0.0095 0.02315,-0.01495 0.0016,-0.0029 -0.01275,-0.008 -0.02204,-0.01029 -0.01098,-0.0026 -0.02529,-0.0052 -0.03702,-0.0042 -0.345811,0.03199 -0.691595,0.06435 -1.037379,0.09631 -0.04855,0.0047 -0.04858,0.0044 -0.165894,0.04662 -0.01,0.0035 -0.02167,0.0073 -0.03421,0.0087 -0.05524,0.0056 -0.111389,0.0094 -0.165761,0.01601 -0.04437,0.0053 -0.08133,0.0018 -0.113506,-0.01037 -0.02286,-0.0089 -0.04643,-0.01119 -0.07493,-0.0098 -0.03183,0.0018 -0.0527,0.0062 -0.07093,0.01638 -0.024,0.01386 -0.03619,0.03141 -0.08726,0.03617 -0.235294,0.02082 -0.470564,0.04347 -0.704998,0.06535 -0.03282,-0.0043 -0.04893,-0.01148 -0.04075,-0.02066 0.0049,-0.0055 0.01481,-0.01294 0.02485,-0.01389 0.09627,-0.0098 0.193397,-0.01844 0.289679,-0.02783 0.01339,-0.0014 0.03186,-0.0011 0.03932,-0.0048 0.03651,-0.01704 0.04935,-0.04363 0.118903,-0.04699 0.04024,-0.002 0.0812,-0.0083 0.119671,-0.01426 0.01087,-0.0017 0.02074,-0.0095 0.02315,-0.01492 7.68e-4,-0.0029 -0.01278,-0.008 -0.02291,-0.01027 -0.03712,-0.0096 -0.07959,0.004 -0.116654,-0.0024 -0.01265,-0.0022 -0.03035,-0.0054 -0.03297,-0.0097 -0.0018,-0.0039 0.01233,-0.01072 0.0223,-0.0149 0.0091,-0.0038 0.02164,-0.0073 0.03421,-0.0087 0.11049,-0.0108 0.221006,-0.02196 0.331549,-0.03093 0.04524,-0.0036 0.07689,-0.01328 0.09663,-0.0303 0.01482,-0.01257 0.03313,-0.01947 0.0616,-0.02191 0.19341,-0.01773 0.386794,-0.03688 0.581078,-0.05355 0.04858,-0.004 0.07347,-0.01643 0.09324,-0.03236 0.01564,-0.01259 0.034,-0.01733 0.06498,-0.02019 0.277151,-0.02503 0.552582,-0.05218 0.829733,-0.07646 0.05109,-0.0044 0.06583,-0.02021 0.09152,-0.03413 0.0091,-0.0049 0.01484,-0.01077 0.02651,-0.01392 0.01169,-0.0031 0.02678,-0.0031 0.04104,-0.0042 0.221033,-0.0205 0.442066,-0.0421 0.663972,-0.06154 0.05191,-0.0044 0.06154,-0.02265 0.08808,-0.03585 0.0092,-0.0042 0.01738,-0.01082 0.02826,-0.01214 0.165762,-0.01601 0.33155,-0.0313 0.497338,-0.04696 0.110516,-0.01043 0.221006,-0.02085 0.331549,-0.03093 0.05442,-0.0048 0.05442,-0.0052 0.127423,-0.04106 0.0083,-0.0042 0.01995,-0.0091 0.03082,-0.01043 0.318135,-0.03027 0.635477,-0.05945 0.953612,-0.08935 0.0268,-0.0024 0.0459,-0.01114 0.05903,-0.02368 0.01315,-0.01254 0.03225,-0.02125 0.05821,-0.02365 0.248655,-0.02365 0.49731,-0.04694 0.746839,-0.06953 0.04522,-0.0039 0.07689,-0.01328 0.09663,-0.02992 0.01482,-0.01257 0.03313,-0.01947 0.06159,-0.02191 0.248655,-0.02294 0.497337,-0.04696 0.746867,-0.06919 0.04773,-0.0043 0.07091,-0.01709 0.09406,-0.03202 0.0083,-0.0052 0.01479,-0.01368 0.02484,-0.01461 0.123878,-0.01291 0.246909,-0.02615 0.371713,-0.03582 0.05194,-0.0041 0.06919,-0.01958 0.08983,-0.03445 0.01651,-0.0119 0.03572,-0.01629 0.06755,-0.01846 0.06953,-0.0048 0.138139,-0.0125 0.205925,-0.02016 0.01005,-0.0013 0.02246,-0.0095 0.02318,-0.01457 0.0015,-0.0094 -0.01799,-0.01543 -0.04993,-0.01795 -0.331576,0.03094 -0.663945,0.06189 -0.995495,0.09283 -0.05442,0.0052 -0.05442,0.0052 -0.127451,0.04106 -0.0083,0.0042 -0.01992,0.0091 -0.03164,0.01045 -0.318161,0.02992 -0.6354784,0.05945 -0.9536394,0.08935 -0.02678,0.0024 -0.04588,0.01114 -0.05903,0.02368 -0.01312,0.01254 -0.03223,0.02125 -0.05818,0.02365 -0.303927,0.0285 -0.607854,0.05736 -0.912628,0.08483 -0.04522,0.0039 -0.07689,0.01291 -0.09663,0.0299 -0.01482,0.01259 -0.03313,0.0195 -0.0616,0.02193 -0.290538,0.02678 -0.580231,0.05458 -0.871616,0.08067 -0.02932,0.0025 -0.05136,-0.0075 -0.0499,-0.01725 7.14e-4,-0.005 0.0131,-0.0136 0.02315,-0.01455 0.1515,-0.01532 0.302207,-0.03098 0.454607,-0.04347 0.05109,-0.004 0.06583,-0.02021 0.09152,-0.0341 0.0083,-0.0049 0.01484,-0.01114 0.02569,-0.01392 0.01167,-0.0032 0.02678,-0.0031 0.04101,-0.0042 0.359172,-0.03371 0.71837,-0.06781 1.078415,-0.100118 0.05191,-0.0048 0.06157,-0.02262 0.08811,-0.03585 0.0091,-0.0045 0.01736,-0.01119 0.02826,-0.01214 0.11049,-0.01117 0.221006,-0.02122 0.331549,-0.0313 0.193411,-0.01807 0.386795,-0.03617 0.5810544,-0.05427 0.05609,-0.0052 0.05609,-0.0052 0.127423,-0.04069 0.0083,-0.0041 0.01995,-0.0095 0.03082,-0.01042 0.511573,-0.04799 1.023145,-0.09599 1.534717,-0.143616 0.02678,-0.0024 0.04588,-0.01113 0.05903,-0.02366 0.01312,-0.01218 0.03223,-0.02126 0.05816,-0.02401 0.691594,-0.06469 1.382316,-0.129355 2.07391,-0.19332 0.04522,-0.0043 0.07691,-0.01255 0.09665,-0.02992 0.01397,-0.01256 0.0331,-0.01947 0.06157,-0.02228 0.760227,-0.07093 1.520481,-0.141854 2.281528,-0.213159 0.511572,-0.04763 1.023144,-0.09599 1.534743,-0.142899 0.04688,-0.0043 0.07178,-0.01603 0.09491,-0.03132 0.0074,-0.0052 0.01479,-0.01366 0.02484,-0.01461 0.109643,-0.01149 0.219313,-0.02227 0.328983,-0.03304 0.03461,0.0089 0.06921,0.01751 0.103822,0.02644 0.02567,-0.01427 0.05054,-0.02887 0.0762,-0.04314 0.165815,-0.01421 0.328957,-0.03412 0.49657,-0.04297 0.0109,-6.08e-4 0.02278,0.006 0.03461,0.0093 0.07853,0.0209 0.122925,0.01809 0.171714,-0.01327 0.01736,-0.01119 0.03223,-0.02125 0.05903,-0.02366 0.08287,-0.0084 0.166661,-0.01459 0.248655,-0.02402 0.04437,-0.005 0.08133,-0.0022 0.113507,0.01002 0.02286,0.0088 0.04643,0.01227 0.07406,0.0095 0.1524,-0.01426 0.303926,-0.02815 0.4563,-0.04313 0.01087,-9.68e-4 0.0208,-0.0073 0.02908,-0.01182 0.01741,-0.0098 0.03228,-0.02017 0.04882,-0.03027 0.02278,0.0056 0.04805,0.0097 0.0667,0.01721 0.02368,0.0088 0.04548,0.0083 0.07728,0.0051 0.607853,-0.05738 1.216554,-0.113702 1.824381,-0.171445 0.05191,-0.0048 0.0749,0.0098 0.110331,0.01694 0.0118,0.0026 0.0236,0.0059 0.03622,0.0064 0.01341,4.13e-4 0.02762,-0.0021 0.04101,-0.0035 0.456327,-0.04277 0.912627,-0.08519 1.368954,-0.127968 0.06027,-0.0057 0.06027,-0.0057 0.150522,0.01458 0.01098,0.0026 0.02529,0.0055 0.03702,0.0042 0.207645,-0.01876 0.41529,-0.0386 0.622088,-0.05771 0.0268,-0.0024 0.04958,0.0028 0.07408,0.01056 0.04818,0.0151 0.05151,0.01503 0.0862,-0.0095 0.01651,-0.01154 0.03397,-0.01878 0.06157,-0.02264 0.03011,-0.0043 0.05445,-0.0038 0.0781,0.0022 0.03374,0.0082 0.05842,0.02279 0.109485,0.01767 0.221006,-0.02195 0.442912,-0.04103 0.663072,-0.06332 0.05022,-0.0051 0.07734,0.0065 0.111099,0.01476 0.01183,0.003 0.02283,0.0078 0.03543,0.0086 0.01262,7.94e-4 0.02765,-0.0021 0.04104,-0.0035 0.276305,-0.02572 0.553429,-0.0511 0.828861,-0.07824 0.05191,-0.0051 0.07493,0.0098 0.110331,0.01693 0.0118,0.0026 0.02532,0.0073 0.03622,0.0064 0.165788,-0.01493 0.332423,-0.0306 0.498184,-0.04625 0.05945,-0.0057 0.05943,-0.0053 0.150522,0.01458 0.01095,0.0026 0.02529,0.0052 0.03702,0.0042 0.193384,-0.01772 0.387588,-0.03582 0.580998,-0.05389 0.05953,-0.0057 0.05953,-0.0057 0.231775,0.0091 0.0127,0.0011 0.02619,0.003 0.03863,0.002 0.221191,-0.02051 0.442912,-0.04067 0.664104,-0.06226 0.04419,-0.0042 0.08123,-0.0022 0.113506,0.01002 0.02275,0.0088 0.0463,0.01227 0.07408,0.0095 0.248709,-0.0233 0.498211,-0.04589 0.745861,-0.07024 0.04789,-0.0047 0.07885,0.0025 0.112712,0.0122 0.01111,0.0033 0.02196,0.0081 0.03466,0.0093 0.0127,0.0011 0.02672,-6.11e-4 0.04022,-0.002 0.248709,-0.02329 0.498211,-0.04553 0.746125,-0.07024 0.05001,-0.0051 0.07726,0.0065 0.110861,0.01475 0.01191,0.003 0.02461,0.0092 0.03466,0.0086 0.0971,-0.0083 0.194469,-0.01594 0.290513,-0.02712 0.05186,-0.0062 0.07488,0.0098 0.110331,0.01693 0.01191,0.0023 0.0254,0.0073 0.03625,0.0064 0.207698,-0.01876 0.415396,-0.03824 0.622035,-0.05806 0.02937,-0.0028 0.05133,-8.7e-5 0.07488,0.0087 0.03149,0.01189 0.06773,0.01611 0.112713,0.01112 0.09631,-0.01047 0.19341,-0.01844 0.290512,-0.02748 0.05715,-0.0053 0.05715,-0.0053 0.231775,0.0095 0.0127,0.0012 0.02619,0.003 0.03863,0.002 0.165893,-0.01529 0.332581,-0.03024 0.497416,-0.04659 0.04445,-0.0046 0.08149,-0.0022 0.113506,0.01002 0.02302,0.0088 0.04551,0.01229 0.07408,0.0095 0.1524,-0.01427 0.304006,-0.02852 0.456406,-0.04278 0.0553,-0.0052 0.110331,-0.01331 0.165629,-0.01457 0.04048,-5.55e-4 0.07012,0.01605 0.106363,0.02387 0.01005,0.0023 0.02672,-9.66e-4 0.04022,-0.002 0.193411,-0.01808 0.387615,-0.03509 0.580232,-0.05495 0.05027,-0.0051 0.07726,0.0065 0.111125,0.01475 0.01191,0.003 0.02461,0.0092 0.03466,0.0086 0.06932,-0.0055 0.138113,-0.0125 0.207433,-0.01876 0.08308,-0.0076 0.166688,-0.01387 0.248709,-0.02365 0.06694,-0.008 0.09287,0.02273 0.146579,0.02259 0.04101,1.46e-4 0.08281,-0.0069 0.123825,-0.01074 0.08308,-0.0076 0.165894,-0.01601 0.248708,-0.02293 0.02937,-0.0025 0.05186,-0.0087 0.06085,-0.02191 0.0016,-0.0026 -0.0127,-0.0076 -0.02196,-0.01066 -0.112448,-0.03417 -0.112448,-0.03417 -0.224631,-0.0237 -0.06959,0.0066 -0.138113,0.01322 -0.207698,0.01912 -0.01164,9.87e-4 -0.02514,-0.0016 -0.03704,-0.0035 -0.0336,-0.0054 -0.03043,-0.01263 -0.0024,-0.02623 0.02831,-0.0136 0.04974,-0.02993 0.07382,-0.04524 0.0344,0.0086 0.06826,0.01716 0.102923,0.02574 0.02752,-0.0024 0.0553,-0.0052 0.08281,-0.0076 0.138113,-0.0125 0.27649,-0.02537 0.414602,-0.03715 0.01005,-9.47e-4 0.02275,0.006 0.03466,0.0093 0.0336,0.0097 0.06403,0.01798 0.112712,0.01291 0.123825,-0.01326 0.248444,-0.02365 0.372533,-0.03547 0.05424,-0.0052 0.05424,-0.0052 0.150548,0.01494 0.01085,0.0023 0.02514,0.0048 0.03704,0.0038 0.124619,-0.01112 0.248444,-0.02293 0.373327,-0.03441 0.02672,-0.0024 0.05292,0.0017 0.0725,0.01168 0.0077,0.0041 0.0061,0.01138 0.03942,0.06967 0.100012,0.04561 0.167746,0.03903 0.236537,0.03315 0.0291,-0.0025 0.05503,-0.0049 0.07435,-0.01249 0.0098,-0.0042 0.02222,-0.01023 0.02222,-0.01491 0,-0.0036 -0.01852,-0.0089 -0.03043,-0.0094 -0.08308,-0.0053 -0.16166,0.0116 -0.242887,0.01669 -0.03784,0.0023 -0.07064,-0.0096 -0.07805,-0.02991 -0.0016,-0.0057 -0.0042,-0.01178 -0.0069,-0.01748 -0.0026,-0.0057 -0.0045,-0.01178 -0.0071,-0.01748 -0.03281,-0.0011 -0.05186,0.0059 -0.06588,0.01842 -0.01164,0.01034 -0.02804,0.02224 -0.05053,0.02815 -0.02249,0.0063 -0.05371,0.0059 -0.08123,0.0083 -0.02672,0.0024 -0.05609,0.0078 -0.08123,0.0058 -0.0254,-0.0023 -0.04577,-0.01229 -0.06932,-0.01823 -0.01085,-0.003 -0.02434,-0.0074 -0.03545,-0.0064 -0.09631,0.0083 -0.191558,0.0166 -0.287073,0.02669 -0.05027,0.0055 -0.07567,-0.0091 -0.107685,-0.01771 -0.0254,-0.0066 -0.05054,-0.0043 -0.0545,0.01239 -0.0098,0.03983 0.02911,0.05551 0.114565,0.04601 0.07012,-0.0081 0.133879,-0.0106 0.189706,0.01261 0.0077,0.0031 0.0254,0.0041 0.03625,0.0031 0.06879,-0.0059 0.136525,-0.01283 0.205052,-0.01871 0.0127,-10e-4 0.02619,1.27e-4 0.03784,0.0013 0.171714,0.01554 0.171714,0.01591 0.229393,0.01027 0.02752,-0.0028 0.05451,-0.0052 0.05054,-0.05984 0.05159,-0.05986 0.135202,-0.06572 0.216429,-0.07621 0.05265,-0.0066 0.07567,0.0087 0.110331,0.01622 0.01191,0.0026 0.02461,0.0081 0.03545,0.0071 0.179917,-0.01597 0.35904,-0.03265 0.538427,-0.05004 0.0299,-0.0028 0.05186,-0.0012 0.07567,0.0076 0.03043,0.01119 0.06403,0.01798 0.111919,0.01258 0.09525,-0.01081 0.192352,-0.01842 0.289454,-0.02783 0.04948,-0.0047 0.04948,-0.0047 0.149754,0.01531 0.01111,0.0023 0.0254,0.0048 0.03704,0.0038 0.0971,-0.0083 0.19341,-0.01807 0.289719,-0.02674 0.02672,-0.0024 0.05133,0.0021 0.0725,0.01131 0.02117,0.0092 0.0463,0.0137 0.07223,0.01132 0.09737,-0.0087 0.19341,-0.01808 0.289719,-0.02675 0.01191,-9.87e-4 0.02619,0.0012 0.03704,0.0035 0.102923,0.01999 0.102923,0.01998 0.149754,0.01532 0.06853,-0.007 0.138907,-0.01108 0.206905,-0.01982 0.06588,-0.0087 0.100806,0.01139 0.146314,0.02187 0.12409,-0.0111 0.248709,-0.02077 0.37174,-0.03365 0.05027,-0.0055 0.07752,0.0058 0.111125,0.0144 0.01191,0.003 0.02381,0.0095 0.03466,0.0089 0.0418,-0.0024 0.08281,-0.0073 0.12409,-0.0111 0.04101,-0.0038 0.08281,-0.0076 0.123825,-0.01146 0.0471,0.0094 0.07885,0.03313 0.145785,0.02333 0.03995,-0.006 0.08282,-0.008 0.123825,-0.01182 0.04101,-0.0038 0.08281,-0.0076 0.123825,-0.01146 0.02778,-0.0024 0.05609,-0.0042 0.08282,-0.008 0.04948,-0.0065 0.07408,0.01056 0.109537,0.01768 0.01191,0.0023 0.0254,0.0063 0.03625,0.0053 0.08282,-0.0069 0.166688,-0.01315 0.247915,-0.02327 0.06271,-0.0079 0.105833,0.0019 0.150548,0.01602 0.0093,0.003 0.02513,0.0045 0.03704,0.0035 0.0971,-0.0083 0.193411,-0.01808 0.289719,-0.02675 0.02593,-0.0024 0.05107,0.0028 0.07223,0.01167 0.02222,0.0092 0.04657,0.01335 0.07329,0.01094 0.09631,-0.0087 0.19341,-0.01808 0.289719,-0.02675 0.01164,-9.87e-4 0.02619,0.0016 0.03704,0.0042 0.09446,0.02017 0.09446,0.02053 0.149755,0.01496 0.01323,-0.0014 0.02752,-0.0024 0.04101,-0.0038 0.06853,-0.0066 0.139965,-0.01002 0.20664,-0.02018 0.07699,-0.01147 0.133614,-5.13e-4 0.188383,0.01876 0.06879,-0.0059 0.139171,-0.01 0.20611,-0.01872 0.05027,-0.0065 0.07726,0.0065 0.111125,0.01476 0.01191,0.003 0.02461,0.0092 0.03466,0.0082 0.0971,-0.0083 0.194204,-0.01594 0.289454,-0.0271 0.05212,-0.0062 0.07514,0.0095 0.110331,0.01693 0.01191,0.0026 0.02461,0.0074 0.03545,0.0064 0.0553,-0.0041 0.110596,-0.0097 0.165894,-0.01493 0.06429,-0.0061 0.06429,-0.0058 0.150548,0.01422 0.04048,0.0095 0.08043,3.28e-4 0.119856,-0.0031 0.0418,-0.0038 0.08123,-0.0069 0.115094,0.0071 0.02117,0.0089 0.04657,0.01407 0.0725,0.01204 0.0553,-0.0045 0.111389,-0.009 0.165629,-0.01565 0.04366,-0.0053 0.08149,-0.0033 0.113506,0.0093 0.02302,0.0088 0.04657,0.01299 0.07408,0.0102 0.124089,-0.01146 0.248708,-0.0233 0.372533,-0.03439 0.01111,-9.69e-4 0.02619,0.0019 0.03625,0.0049 0.02381,0.0059 0.04657,0.01262 0.06932,0.01931 0.0545,-0.0045 0.110595,-0.0072 0.164041,-0.01345 0.05689,-0.0063 0.109009,-0.0093 0.153988,0.0095 0.0093,0.0041 0.02275,0.0099 0.0336,0.0093 0.04207,-0.0024 0.08308,-0.0069 0.124089,-0.01074 0.04101,-0.0038 0.08281,-0.0076 0.123825,-0.01146 0.04789,0.0079 0.07885,0.03313 0.145786,0.02333 0.03995,-0.0059 0.08281,-0.008 0.123825,-0.01182 0.04101,-0.0038 0.08281,-0.008 0.123825,-0.01146 0.01349,-0.001 0.02858,-0.0032 0.04022,-0.002 0.0127,0.0012 0.02381,0.0059 0.03466,0.0093 0.03387,0.0097 0.06509,0.0194 0.112712,0.0122 0.04022,-0.006 0.08281,-0.008 0.12409,-0.01218 0.05609,-0.0052 0.05609,-0.0052 0.14949,0.01532 0.0381,0.0085 0.08043,-0.0047 0.116681,0.0024 0.02461,0.0048 0.04577,0.01336 0.06932,0.01895 0.01005,0.0023 0.02619,0.003 0.03784,0.002 0.0553,-0.0045 0.11139,-0.009 0.165629,-0.01565 0.04445,-0.0053 0.08149,-0.0018 0.112713,0.0104 0.02302,0.0088 0.04577,0.01229 0.07408,0.0095 0.138113,-0.01322 0.27649,-0.02501 0.413544,-0.03928 0.0471,-0.005 0.08493,2.36e-4 0.111125,0.0126 0.04498,0.0213 0.107421,-0.0064 0.153723,0.01055 0.02884,0.01051 0.05768,0.02282 0.109537,0.01624 0.09551,-0.01153 0.192617,-0.01878 0.288925,-0.02745 0.03466,0.0089 0.06906,0.01787 0.104511,0.02679 0.0553,-0.0052 0.110596,-0.01044 0.165893,-0.01529 0.04101,-0.0038 0.08282,-0.008 0.123825,-0.01146 0.01349,-0.001 0.02778,-0.0028 0.04022,-0.0013 0.0127,0.0015 0.02302,0.006 0.03466,0.0093 0.05847,0.01632 0.05847,0.01668 0.153722,0.0073 0.04101,-0.0042 0.08043,-0.0072 0.115094,0.0064 0.03228,0.01259 0.07011,0.01425 0.113506,0.0093 0.08202,-0.0091 0.1651,-0.01635 0.248709,-0.02329 0.02593,-0.0024 0.05053,0.0032 0.0725,0.01204 0.03307,0.01401 0.07329,0.01165 0.1143,0.0068 0.05424,-0.0063 0.10795,-0.01253 0.154516,0.0066 0.0093,0.0041 0.02381,0.0099 0.03387,0.0093 0.06853,-0.0044 0.138112,-0.0082 0.205052,-0.01655 0.06694,-0.0084 0.100277,0.01321 0.146579,0.02295 0.06853,-0.0062 0.138113,-0.0125 0.20664,-0.01874 0.01349,-0.0014 0.02937,-0.005 0.04127,-0.0035 0.04948,0.0064 0.07858,0.03277 0.146314,0.02295 0.03942,-0.0056 0.08202,-0.008 0.123296,-0.01 0.01085,-6.06e-4 0.02514,0.0052 0.03281,0.0097 0.0042,0.0024 2.64e-4,0.0094 -0.0048,0.01307 -0.01482,0.01042 -0.03307,0.0202 -0.0463,0.03094 -0.0016,0.0015 0.01455,0.0076 0.02381,0.01026 0.02276,0.006 0.04868,0.0043 0.07885,7.31e-4 0.02593,-0.0031 0.05292,0.0013 0.0717,0.01169 0.0077,0.0041 0.0053,0.0114 -0.01005,0.03551 2.65e-4,0.01763 0.01773,0.0093 0.02328,-0.0023 0.009,-0.01676 -0.0087,-0.02176 -0.04207,-0.012 -0.02328,0.007 -0.03493,0.01663 -0.02884,0.02406 0.0034,0.0039 0.01931,0.0086 0.04762,-0.0097 0.07329,-0.02327 0.128588,-0.02848 0.183886,-0.0337 0.01402,-0.0014 0.03069,-0.0054 0.04101,-0.0035 0.03625,0.0078 0.06985,0.01749 0.105304,0.02641 0.04022,-0.0031 0.07779,-0.0093 0.11774,0.0038 0.05583,0.01853 0.05821,0.01668 0.111654,0.0115 0.02778,-0.0028 0.0553,-0.0052 0.08308,-0.0076 0.02752,-0.0024 0.04948,0.0025 0.07408,0.0102 0.04974,0.01579 0.05398,0.01569 0.08626,-0.0081 0.01879,-0.01447 0.03228,-0.01945 0.05662,-0.01353 0.08096,0.02012 0.08202,0.02154 0.150548,0.0135 0.05689,-0.0067 0.110596,-0.0094 0.15293,0.0102 0.02884,0.01375 0.0381,0.0103 0.06032,-0.0053 0.05953,-0.04131 0.08705,-0.04123 0.201083,-0.01501 0.05292,0.01247 0.107156,-0.0035 0.160867,-0.0065 0.04524,-0.0025 0.07726,0.0054 0.08123,0.02803 0.0029,0.01398 0.01058,0.02388 0.04075,0.02788 0.01191,0.0015 0.02619,0.0037 0.03784,0.0027 0.06959,-0.0059 0.138377,-0.0125 0.207698,-0.01912 0.03519,-0.0033 0.05424,-0.02067 0.04683,-0.04283 -0.0079,-0.02358 0.0053,-0.03252 0.0553,-0.0405 0.03016,-0.0046 0.0545,-0.0045 0.07885,0.0014 0.02725,0.0066 0.01984,0.01323 -0.0034,0.02672 -0.05556,0.03295 -0.04842,0.05222 0.02434,0.07253 0.0254,0.007 0.04551,0.01337 0.05159,0.02439 0.0037,0.0057 5.29e-4,0.01331 0.0082,0.01746 0.04154,0.02318 0.09895,0.03735 0.162983,0.04742 0.06085,-0.01111 0.103188,0.0041 0.150548,0.01602 0.03704,0.0092 0.08043,-3.89e-4 0.119856,-0.0049 0.04419,-0.005 0.08123,-0.0029 0.113506,0.0097 0.02276,0.0088 0.0463,0.01263 0.07408,0.0102 0.0553,-0.0052 0.111389,-0.009 0.165629,-0.01601 0.04683,-0.0061 0.08228,2.94e-4 0.111919,0.01186 0.03731,0.01463 0.07805,0.0033 0.116681,0.0045 0.05212,0.0013 0.07885,0.03277 0.146579,0.02259 0.04022,-0.006 0.08202,-0.0087 0.12409,-0.0111 0.01085,-6.09e-4 0.02434,0.0052 0.0336,0.0093 0.04498,0.01878 0.09684,0.01652 0.153723,0.0095 0.03942,-0.0049 0.07779,-0.0093 0.116681,0.0035 0.06429,0.02158 0.135202,0.04013 0.202935,0.05984 0.0095,0.01634 0.0032,0.03593 0.05133,0.04455 0.02514,0.0045 0.04895,0.01149 0.06853,0.01933 0.02355,0.0092 0.04551,0.01121 0.07567,0.008 0.05424,-0.0063 0.11139,-0.0087 0.164836,-0.01635 0.04948,-0.0069 0.0807,0.0043 0.111125,0.01476 0.02461,0.0084 0.04736,0.01225 0.07646,0.0051 0.0299,-0.0068 0.05186,-0.0033 0.07646,0.0058 0.03466,0.01253 0.03731,0.01104 0.151342,0.01241 0.01164,9.2e-5 0.02619,0.0052 0.03281,0.0097 0.0034,0.0024 -0.004,0.0098 -0.0095,0.01355 -0.0077,0.0045 -0.01931,0.0098 -0.03016,0.01112 -0.123825,0.01218 -0.248444,0.02329 -0.372534,0.03547 -0.01243,0.0014 -0.02593,0.0042 -0.03493,0.008 -0.01005,0.0042 -0.02249,0.0099 -0.02249,0.0149 2.64e-4,0.0036 0.01693,0.0075 0.02884,0.0098 0.03704,0.0074 0.08043,-0.0062 0.116681,0.0024 0.02461,0.0056 0.04471,0.01374 0.06932,0.01895 0.01005,0.0023 0.02593,0.0016 0.03863,5.61e-4 0.04181,-0.0035 0.08282,-0.008 0.124619,-0.01112 0.01191,-6.28e-4 0.0254,0.0027 0.03625,0.0053 0.08096,0.01976 0.08096,0.01976 0.150548,0.0135 0.02752,-0.0024 0.05689,-0.0085 0.08281,-0.0069 0.0254,0.0016 0.04736,0.01081 0.07011,0.01641 0.04736,0.01189 0.09208,0.02347 0.09604,0.05146 0.0019,0.01076 0.02963,0.01948 0.05741,0.01957 0.02699,1.11e-4 0.0553,-0.0045 0.08281,-0.0073 0.06535,-0.0058 0.06535,-0.0058 0.150548,0.01422 0.02381,0.0056 0.04895,0.0057 0.07911,0.0014 0.01164,-0.0017 0.02593,-5.9e-4 0.03863,9.23e-4 0.04101,0.0045 0.04127,0.0113 0.01482,0.02487 -0.03731,0.01993 -0.03387,0.02165 0.07197,0.03544 0.04048,0.0052 0.0717,0.01601 0.105569,0.02533 0.05477,0.01495 0.05397,0.01497 0.01852,0.03702 -0.0082,0.0049 -0.01588,0.01008 -0.02408,0.01531 -0.02408,0.01459 -0.04286,0.03014 -0.09313,0.03272 -0.0553,0.0027 -0.110596,0.0097 -0.165894,0.01493 -0.05344,0.0052 -0.06747,0.01413 -0.06191,0.03849 0.0064,0.02938 0.01746,0.03237 0.113771,0.02982 0.02778,-6.3e-4 0.05212,0.0017 0.07329,0.01093 -0.0098,0.01174 -0.02805,0.02116 -0.05477,0.02393 -0.06853,0.007 -0.138113,0.01322 -0.20664,0.01946 -0.0553,0.0052 -0.110596,0.01043 -0.165894,0.01565 -0.0344,0.0033 -0.05583,0.02251 -0.04604,0.04317 0.0053,0.01176 0.0098,0.02354 0.01429,0.03532 0.0098,0.02354 0.02752,0.02926 0.08361,0.0269 0.01429,-6.85e-4 0.02778,-0.0039 0.04101,-0.0035 0.05477,0.0013 0.08123,0.03055 0.146579,0.02295 0.0545,-0.0063 0.11139,-0.0086 0.1651,-0.01635 0.04921,-0.0069 0.07726,0.0054 0.111654,0.01438 0.01191,0.003 0.02461,0.0095 0.03466,0.0089 0.06958,-0.0055 0.139171,-0.01108 0.206904,-0.01946 0.03175,-0.0036 0.05106,-0.0019 0.07646,0.0062 0.06086,0.0195 0.06244,0.01838 0.152136,0.0099 0.06535,-0.0065 0.06615,-0.0058 0.150548,0.01422 0.02355,0.0056 0.04868,0.005 0.07885,0.0014 0.03942,-0.0045 0.08043,-0.01119 0.121443,-0.0067 0.0127,0.0012 0.02884,0.0051 0.03307,0.0097 0.0026,0.0032 -0.009,0.01137 -0.01905,0.01411 -0.07329,0.02039 -0.159808,0.01912 -0.240241,0.0285 -0.02487,0.0027 -0.05027,-0.0035 -0.07144,-0.01277 -0.02196,-0.0092 -0.04577,-0.01264 -0.07408,-0.01019 -0.0553,0.0052 -0.11139,0.009 -0.165894,0.01601 -0.04683,0.0061 -0.07964,-0.0014 -0.112712,-0.01184 -0.01085,-0.0033 -0.02355,-0.0099 -0.03466,-0.0093 -0.123825,0.01002 -0.248708,0.02006 -0.371739,0.03294 -0.04921,0.0054 -0.07805,-0.0054 -0.111919,-0.01438 -0.01164,-0.003 -0.02355,-0.0095 -0.03466,-0.0089 -0.0418,0.0024 -0.08281,0.0073 -0.124618,0.01112 -0.1524,0.01426 -0.304007,0.02851 -0.456407,0.04206 -0.01005,9.5e-4 -0.02275,-0.0063 -0.03466,-0.0093 -0.02275,-0.006 -0.0463,-0.01155 -0.06985,-0.01713 -0.04207,0.0038 -0.08308,0.0084 -0.124883,0.01148 -0.03016,0.0021 -0.05689,0.0078 -0.06059,0.02154 -0.0024,0.009 0.0254,0.0167 0.05477,0.01531 0.02858,-0.0014 0.05689,-0.0063 0.08043,-0.0022 0.117211,0.02038 0.117211,0.02074 0.189971,0.0144 0.06377,-0.0058 0.05689,-0.0092 0.113506,0.0093 0.02461,0.0081 0.04657,0.01263 0.07408,0.0098 0.06879,-0.0066 0.138112,-0.01322 0.207697,-0.01912 0.01085,-9.66e-4 0.02514,0.0023 0.03625,0.0049 0.08255,0.01972 0.08255,0.02044 0.150548,0.0135 0.08864,-0.0085 0.09207,-0.01037 0.151871,0.01022 0.04154,0.01418 0.07911,0.0029 0.118533,0.0013 0.04551,0.013 0.09525,0.02447 0.13679,0.03937 0.04895,0.0176 0.100013,0.0132 0.15531,0.0065 0.04101,-0.0049 0.08123,-0.0072 0.115094,0.0067 0.03228,0.01295 0.07091,0.01352 0.1143,0.0089 0.03942,-0.0041 0.07964,-0.01189 0.120915,-0.0049 0.01085,0.0019 0.02778,0.0069 0.02699,0.01019 -7.93e-4,0.0051 -0.01138,0.0125 -0.02222,0.01491 -0.07699,0.01651 -0.16166,0.01807 -0.242887,0.02676 -0.01085,0.0013 -0.02514,-0.0023 -0.03625,-0.0049 -0.02355,-0.0059 -0.0463,-0.01299 -0.06906,-0.01931 -0.04101,0.0031 -0.08308,0.0048 -0.123296,0.01 -0.03096,0.0039 -0.05424,0.0041 -0.07726,-0.004 -0.02117,-0.0074 -0.04392,-0.01664 -0.06906,-0.01859 -0.0254,-0.0019 -0.0545,0.0041 -0.08228,0.0069 -0.02752,0.0028 -0.05927,0.0024 -0.08096,0.0087 -0.0217,0.0062 -0.03493,0.01915 -0.04895,0.02955 -0.01561,0.01152 -0.03731,0.01561 -0.06932,0.01742 -0.02911,0.0017 -0.05265,8.39e-4 -0.07488,-0.0087 -0.0093,-0.0041 -0.02196,-0.0071 -0.03466,-0.0096 -0.01164,-0.0023 -0.02513,-0.0059 -0.03598,-0.0049 -0.124884,0.01112 -0.248709,0.02294 -0.373592,0.03441 -0.06191,0.0057 -0.06112,0.0057 -0.190765,-0.01259 -0.01164,-0.0015 -0.02593,-0.0037 -0.03784,-0.0027 -0.06932,0.0059 -0.138112,0.0125 -0.207433,0.01912 -0.07038,0.0066 -0.06959,0.0059 -0.189971,-0.01404 -0.02196,-0.0038 -0.05371,0.0027 -0.07964,0.0025 -0.05477,-5.61e-4 -0.08228,-0.03018 -0.145785,-0.02297 -0.0545,0.0063 -0.11139,0.0087 -0.165894,0.01637 -0.04921,0.0069 -0.07805,-0.0051 -0.111919,-0.01402 -0.01164,-0.003 -0.02434,-0.0099 -0.03439,-0.0089 -0.124884,0.01076 -0.248709,0.02257 -0.414867,0.02743 -0.04101,9.34e-4 -0.02249,0.0081 0.0045,0.01 0.03863,0.0031 0.05106,-0.0048 0.0299,-0.01868 -0.01535,-0.0097 -0.03731,-0.01428 -0.05503,-0.01136 -0.009,0.0017 -0.02064,0.0088 0.02064,0.02006 0.04392,0.01268 0.04154,0.0203 0.04921,0.02444 0.01879,0.01002 0.04498,0.01374 0.0717,0.01169 0.0418,-0.0035 0.08281,-0.008 0.124619,-0.01112 0.01191,-9.87e-4 0.02619,0.0012 0.03704,0.0038 0.09287,0.02021 0.09366,0.02164 0.191558,0.01077 0.03096,-0.0032 0.05371,-0.0037 0.07805,0.0025 0.03387,0.0086 0.05847,0.02387 0.109538,0.01767 0.06773,-0.0084 0.137319,-0.01392 0.206904,-0.01946 0.01085,-9.68e-4 0.02275,0.0052 0.03545,0.0078 0.0344,0.0079 0.06006,0.02348 0.111125,0.01547 0.03916,-0.0063 0.08202,-0.0087 0.123825,-0.01074 0.01085,-6.09e-4 0.02778,0.0048 0.03307,0.0093 0.01005,0.0081 -0.0021,0.01805 -0.03043,0.02554 -0.01191,0.0031 -0.02778,0.0028 -0.04101,0.0042 -0.0553,0.0052 -0.110596,0.01079 -0.165894,0.01529 -0.02937,0.0025 -0.05689,0.0085 -0.0598,0.02189 -0.0024,0.009 0.02805,0.01628 0.05636,0.01491 0.04207,-0.002 0.08387,-0.0059 0.12409,-0.01146 0.07091,-0.0095 0.133085,-0.0088 0.191558,0.01256 0.04127,0.0149 0.03863,0.0092 0.08334,0.05499 0.01138,0.01163 0.04392,0.01196 0.0725,0.01059 0.06879,-0.0034 0.100806,0.0013 0.09499,0.0126 -0.0071,0.01385 -0.03122,0.01871 -0.06244,0.02122 -0.05503,0.0041 -0.110331,0.01008 -0.165629,0.01529 -0.01349,0.0014 -0.02857,0.0039 -0.04101,0.0034 -0.0127,-4.34e-4 -0.02461,-0.0045 -0.03545,-0.0075 -0.02355,-0.0063 -0.04392,-0.01628 -0.06932,-0.01823 -0.02514,-0.002 -0.05424,0.0041 -0.08202,0.0069 -0.02752,0.0024 -0.05689,0.0085 -0.08202,0.0066 -0.02513,-0.002 -0.04657,-0.01226 -0.06932,-0.01823 -0.01085,-0.003 -0.02434,-0.0077 -0.03519,-0.0071 -0.0553,0.0041 -0.110596,0.01008 -0.165894,0.01493 -0.06773,0.0062 -0.06773,0.0062 -0.150548,-0.01422 -0.02355,-0.0059 -0.04789,-0.005 -0.07885,-0.0014 -0.06694,0.0073 -0.068,0.0062 -0.190764,-0.01187 -0.01191,-0.0019 -0.02619,-0.0041 -0.03784,-0.0027 -0.124883,0.01112 -0.248708,0.02293 -0.372533,0.03439 -0.106363,0.01 -0.106363,0.01 -0.164306,0.0473 -0.04286,0.02762 -0.04392,0.02764 -7.94e-4,0.0389 0.03466,0.0093 0.06588,0.02334 0.103981,0.02788 0.03519,0.0042 0.07858,-0.01295 0.117475,0.0027 0.01931,0.0078 0.04472,0.01626 0.06906,0.01715 0.03863,9.23e-4 0.07964,-0.01045 0.116946,0.0046 0.01852,0.0075 0.0463,0.01515 0.06985,0.01497 0.04127,-2.14e-4 0.08281,-0.0069 0.12409,-0.01038 0.01244,-10e-4 0.02672,-0.0013 0.03836,2.04e-4 0.0127,0.0019 0.02381,0.0059 0.03466,0.0093 0.03387,0.01147 0.07011,0.01641 0.113506,0.0093 0.07117,-0.0117 0.134938,-0.0081 0.190765,0.01367 0.0077,0.0031 0.02619,0.003 0.03784,0.0013 0.03016,-0.0043 0.05609,-0.0052 0.07885,0.0011 0.0093,0.0027 0.02302,0.0074 0.02143,0.01068 -0.0026,0.0055 -0.01243,0.01288 -0.02328,0.01493 -0.07858,0.01403 -0.163248,0.01739 -0.244475,0.02572 -0.01085,9.68e-4 -0.02434,-0.0034 -0.03519,-0.0064 -0.02381,-0.0059 -0.04418,-0.01628 -0.06932,-0.01823 -0.02514,-0.002 -0.0545,0.0034 -0.08202,0.0058 -0.02778,0.0024 -0.05689,0.0085 -0.08229,0.0069 -0.02513,-0.002 -0.04868,-0.01041 -0.06906,-0.01787 -0.02381,-0.0085 -0.0463,-0.009 -0.07726,-0.0047 -0.04022,0.0056 -0.08202,0.0073 -0.123296,0.01072 -0.02275,-0.0063 -0.04551,-0.01337 -0.06906,-0.01931 -0.01111,-0.003 -0.02461,-0.0066 -0.03625,-0.006 -0.0553,0.0041 -0.110596,0.0097 -0.165894,0.01493 -0.0553,0.0052 -0.0553,0.0052 -0.149754,-0.01496 -0.01085,-0.0023 -0.02514,-0.0048 -0.03704,-0.0038 -0.06932,0.0059 -0.138112,0.01286 -0.207433,0.01876 -0.02699,0.0024 -0.05133,-0.0021 -0.07329,-0.0113 -0.02117,-0.0092 -0.04657,-0.01406 -0.0725,-0.01168 -0.110596,0.01007 -0.220927,0.01979 -0.331523,0.0313 -0.04445,0.0046 -0.08228,0.0022 -0.112712,-0.01004 -0.03545,-0.01395 -0.07488,-0.0095 -0.115888,-0.0057 -0.09287,0.0093 -0.09366,0.009 -0.153723,-0.008 -0.01191,-0.0033 -0.02381,-0.0099 -0.03466,-0.0093 -0.09631,0.0076 -0.19341,0.01484 -0.288925,0.02565 -0.05027,0.0058 -0.07726,-0.0062 -0.111125,-0.01476 -0.01164,-0.003 -0.02434,-0.0095 -0.0344,-0.0086 -0.06958,0.0055 -0.139171,0.01072 -0.206904,0.01946 -0.06773,0.0087 -0.09446,-0.02413 -0.145785,-0.02261 -0.06959,0.0019 -0.138113,0.01178 -0.20664,0.01838 -0.0553,0.0052 -0.110596,0.01043 -0.165894,0.01565 -0.0553,0.0052 -0.110596,0.0097 -0.165893,0.01565 -0.02911,0.0032 -0.05107,4.41e-4 -0.07567,-0.008 -0.03122,-0.01117 -0.06826,-0.01968 -0.102129,-0.02971 -0.05159,-0.01431 -0.05159,-0.01431 -0.113507,-0.0086 -0.01323,0.0014 -0.02752,0.0024 -0.04101,0.0038 -0.101336,0.01022 -0.101336,0.0095 -0.230981,-0.01023 -0.0058,-9.48e-4 -0.0209,0.0034 -0.02672,0.0064 -0.01746,0.0098 -0.03307,0.02019 -0.04868,0.03027 -0.02275,-0.0052 -0.05053,-0.0079 -0.06588,-0.01579 -0.04339,-0.02242 -0.109537,0.01113 -0.153723,-0.01091 -0.01614,-0.0083 -0.04418,-0.0152 -0.06932,-0.01679 -0.02593,-0.0016 -0.0553,0.0041 -0.08202,0.0069 -0.06959,0.007 -0.06959,0.0066 -0.128323,0.04 -0.0299,0.01652 -0.07355,0.01463 -0.112713,0.01912 -0.04101,0.0049 -0.08043,0.008 -0.115094,-0.006 -0.03148,-0.01261 -0.06932,-0.01499 -0.113506,-0.0097 -0.0545,0.0066 -0.110596,0.01115 -0.165894,0.01565 -0.01164,9.87e-4 -0.02593,-4.87e-4 -0.03783,-0.0024 -0.128852,-0.01831 -0.128852,-0.01867 -0.190765,-0.01258 -0.02752,0.0028 -0.05609,0.0042 -0.08281,0.008 -0.04524,0.0068 -0.07964,1.3e-5 -0.112713,-0.01076 -0.01085,-0.0033 -0.02381,-0.0099 -0.03466,-0.0093 -0.0553,0.0031 -0.109802,0.0075 -0.164042,0.01201 -0.04207,0.0035 -0.08387,0.0059 -0.124089,0.01182 -0.06668,0.0098 -0.100013,-0.01285 -0.146315,-0.0226 -0.06879,0.0062 -0.138377,0.01106 -0.206904,0.0191 -0.03175,0.0036 -0.05265,0.003 -0.07726,-0.0051 -0.03122,-0.01009 -0.06006,-0.02168 -0.110332,-0.01513 -0.06694,0.0087 -0.137318,0.01284 -0.205846,0.01872 -0.04657,-0.01011 -0.08043,-0.03202 -0.146579,-0.02224 -0.04022,0.0059 -0.08281,0.008 -0.123825,0.01182 -0.0553,0.0052 -0.110596,0.01008 -0.165893,0.01565 -0.05953,0.0057 -0.05874,0.0046 -0.150548,-0.01458 -0.05318,-0.01139 -0.107421,0.0039 -0.160867,0.0073 -0.04207,0.0027 -0.06244,0.01978 -0.05186,0.04078 0.01032,0.021 -0.01191,0.03807 -0.05027,0.04183 -0.09631,0.009 -0.193411,0.01844 -0.289719,0.02675 -0.01191,9.87e-4 -0.02619,-0.0012 -0.03704,-0.0035 -0.103716,-0.02032 -0.103716,-0.01996 -0.149754,-0.01568 -0.06853,0.007 -0.138906,0.01144 -0.206639,0.01982 -0.0471,0.0058 -0.08149,-10e-4 -0.111919,-0.01258 -0.02381,-0.0088 -0.04577,-0.01049 -0.07567,-0.0076 -0.331787,0.03166 -0.66331,0.06152 -0.99404,0.09388 -0.04921,0.0047 -0.07805,-0.0051 -0.111918,-0.01402 -0.01164,-0.003 -0.02275,-0.0096 -0.0344,-0.0093 -0.02778,6.29e-4 -0.0553,0.0045 -0.08308,0.0073 -0.123825,0.01146 -0.24765,0.02471 -0.372534,0.03402 -0.05265,0.0041 -0.06667,0.02096 -0.0889,0.03516 -0.01746,0.01082 -0.03757,0.01561 -0.06853,0.01775 -0.03016,0.0021 -0.05186,8.2e-4 -0.07567,-0.008 -0.03043,-0.01154 -0.06509,-0.01831 -0.111918,-0.0122 -0.05424,0.007 -0.109538,0.01077 -0.165629,0.01601 -0.02858,0.0024 -0.05027,0.0094 -0.059,0.02257 -0.0019,0.0022 0.01588,0.0072 0.02619,0.01021 0.03387,0.01003 0.06588,0.02191 0.103717,0.0286 0.03889,0.0067 0.0807,-0.0029 0.12065,-0.006 0.01429,-0.0011 0.02778,-0.0035 0.04127,-0.0035 0.01243,7.9e-5 0.02752,0.0015 0.03704,0.0046 0.04392,0.01519 0.09022,0.02529 0.150283,0.01421 0.05212,0.0035 0.07964,0.03276 0.145785,0.02334 0.04022,-0.0056 0.08202,-0.0087 0.123825,-0.01146 0.01111,-6.09e-4 0.02302,0.0056 0.03466,0.0086 0.03387,0.0082 0.06085,0.02201 0.111125,0.01476 0.05345,-0.0077 0.110596,-0.01008 0.164835,-0.01635 0.03016,-0.0036 0.05212,-0.0016 0.07567,0.0073 0.03069,0.01119 0.06509,0.01939 0.111919,0.01257 0.04022,-0.0059 0.08308,-0.008 0.124089,-0.01217 0.05345,-0.0052 0.05345,-0.0048 0.14949,0.01532 0.01111,0.0023 0.0254,0.0048 0.03704,0.0038 0.06959,-0.0059 0.138112,-0.01286 0.207697,-0.01876 0.02672,-0.0024 0.05292,0.0017 0.0717,0.01169 0.0077,0.0042 0.0053,0.0114 0.0079,0.01746 -0.138112,0.01286 -0.27649,0.02429 -0.413544,0.03929 -0.05186,0.0058 -0.07593,-0.0084 -0.110331,-0.01588 -0.01191,-0.0026 -0.02461,-0.0084 -0.03545,-0.0075 -0.0971,0.0083 -0.193411,0.01699 -0.289719,0.02709 -0.03016,0.0032 -0.05265,0.0023 -0.07567,-0.0076 -0.05847,-0.0264 -0.128587,-0.0097 -0.193939,-0.0042 -0.05027,0.004 -0.06588,0.01553 -0.05953,0.03916 0.0082,0.02789 0.03863,0.03583 0.115623,0.02905 0.02778,-0.0024 0.0553,-0.0056 0.08282,-0.0076 0.02699,-0.0021 0.05133,0.0021 0.07329,0.0113 0.02117,0.0092 0.04657,0.01371 0.07249,0.01167 0.0553,-0.0045 0.11139,-0.009 0.164836,-0.01564 0.04445,-0.0053 0.08149,-0.0026 0.112712,0.01005 0.03493,0.01397 0.07488,0.0098 0.115094,0.0057 0.09393,-0.0093 0.09472,-0.009 0.153723,0.0077 0.01191,0.0033 0.02381,0.0099 0.03466,0.0093 0.09631,-0.0076 0.193411,-0.01447 0.288132,-0.02527 0.04921,-0.0054 0.07805,0.0054 0.111125,0.01402 0.01164,0.003 0.02355,0.0099 0.0344,0.0089 0.06959,-0.0055 0.139171,-0.01109 0.206905,-0.01947 0.03175,-0.0039 0.05106,-0.0022 0.07726,0.0058 0.06271,0.01982 0.06429,0.01905 0.152135,0.01021 0.02672,-0.0028 0.05609,-0.0074 0.08123,-0.0051 0.0254,0.0023 0.04577,0.01228 0.06932,0.01823 0.01111,0.0026 0.02461,0.0063 0.03625,0.0053 0.0553,-0.0041 0.110596,-0.0097 0.165629,-0.01492 0.05212,-0.0051 0.05212,-0.0048 0.149755,0.01532 0.03969,0.0085 0.0807,-3.97e-4 0.119856,-0.0042 0.04286,-0.0042 0.08149,-0.0051 0.1143,0.0082 0.03307,0.01331 0.0725,0.0117 0.1143,0.0079 0.03942,-0.0038 0.07964,-0.01262 0.120121,-0.0038 0.0926,0.02021 0.0926,0.02056 0.149489,0.01495 0.08308,-0.008 0.1651,-0.01561 0.248709,-0.02294 0.01085,-9.53e-4 0.0254,0.003 0.03625,0.0057 0.02355,0.006 0.04392,0.0163 0.06932,0.01823 0.02514,0.0023 0.0545,-0.0027 0.08123,-0.0055 0.08626,-0.0088 0.09208,-0.01143 0.150548,0.01098 0.04895,0.01834 0.108744,-0.01111 0.154517,0.01019 0.02619,0.01199 0.06165,0.02127 0.110331,0.01405 0.03995,-0.006 0.08202,-0.0084 0.123825,-0.01217 0.06615,-0.0062 0.06615,-0.0058 0.150548,0.01386 0.01085,0.0026 0.02514,0.0059 0.03625,0.0049 0.05503,-0.0041 0.11139,-0.0079 0.164835,-0.01564 0.06271,-0.009 0.103188,0.0038 0.150548,0.01603 0.03704,0.0096 0.08043,-2.7e-5 0.119857,-0.0045 0.0426,-0.0046 0.08123,-0.0044 0.113506,0.0089 0.03387,0.01363 0.07329,0.01093 0.115094,0.0071 0.03942,-0.0034 0.07937,-0.01259 0.119856,-0.0034 0.08705,0.02035 0.08705,0.02035 0.149754,0.01461 0.0553,-0.0052 0.110596,-0.0108 0.165894,-0.01492 0.01085,-9.79e-4 0.02434,0.0034 0.03519,0.0064 0.02381,0.006 0.04419,0.0163 0.06932,0.01823 0.02514,0.002 0.0545,-0.0034 0.08202,-0.0058 0.02778,-0.0024 0.05688,-0.0085 0.08228,-0.0069 0.02514,0.0016 0.04868,0.01005 0.06906,0.01751 0.02381,0.0088 0.04551,0.0094 0.07726,0.0051 0.04022,-0.0056 0.08202,-0.0076 0.123031,-0.01109 0.02302,0.0063 0.04657,0.01262 0.06853,0.01969 0.02276,0.0074 0.0471,0.0061 0.07805,0.0029 0.102923,-0.01098 0.103982,-0.0099 0.190765,0.01042 0.03969,0.0092 0.0807,-2.7e-5 0.119856,-0.0034 0.04207,-0.0038 0.08123,-0.0062 0.1143,0.0075 0.03228,0.01294 0.0717,0.01384 0.113507,0.0086 0.02672,-0.0035 0.0553,-0.0059 0.08281,-0.0076 0.0127,-6.35e-4 0.02778,4.49e-4 0.03704,0.0031 0.04498,0.0141 0.0889,0.0268 0.149754,0.01569 0.05371,0.0016 0.08123,0.03056 0.145785,0.02331 0.05424,-0.0063 0.11139,-0.0086 0.164836,-0.01635 0.04948,-0.0069 0.08493,0.0024 0.110331,0.01442 0.04577,0.0213 0.108744,-0.0104 0.154517,0.01053 0.02646,0.01201 0.06006,0.02132 0.110331,0.01479 0.0553,-0.007 0.07303,1.32e-4 0.08943,0.02244 0.0095,0.01275 0.0082,0.02323 -0.0085,0.03368 -0.0164,0.01082 -0.03493,0.0094 -0.06218,-0.0018 -0.03122,-0.01262 -0.06826,-0.01429 -0.112712,-0.0104 -0.04339,0.0039 -0.07064,-0.01424 -0.106892,-0.02061 -0.03625,-0.0068 -0.07885,0.0068 -0.116681,-0.002 -0.08943,-0.02064 -0.08943,-0.02064 -0.149754,-0.01495 -0.04101,0.0038 -0.08361,0.0062 -0.123825,0.01217 -0.04762,0.0072 -0.07911,-0.0033 -0.111919,-0.01257 -0.01191,-0.0033 -0.02381,-0.0099 -0.03387,-0.0093 -0.09631,0.0076 -0.19341,0.01482 -0.288925,0.02601 -0.05001,0.0058 -0.07726,-0.0065 -0.11086,-0.01476 -0.01191,-0.003 -0.02461,-0.0091 -0.03466,-0.0082 -0.08308,0.0069 -0.1651,0.01529 -0.247915,0.02328 -0.01561,0.01008 -0.03307,0.01984 -0.04789,0.03061 -0.01561,0.01117 -0.03731,0.01633 -0.06932,0.0167 -0.05292,0.0012 -0.104511,0.01749 -0.157692,-3.71e-4 -0.05503,-0.0182 -0.05927,-0.01701 -0.111919,-0.01114 -0.06694,0.0076 -0.138377,0.0078 -0.200819,0.02328 -0.01085,0.0028 -0.02249,0.0099 -0.02222,0.01492 -7.93e-4,0.0033 0.01693,0.0075 0.02778,0.01016 0.03704,0.0078 0.07964,-0.0058 0.116681,0.0024 0.02461,0.0052 0.04471,0.01339 0.06932,0.01894 0.01005,0.0023 0.02513,0.0016 0.03863,9.26e-4 0.01429,-6.88e-4 0.02752,-0.0035 0.04101,-0.0034 0.0127,5.3e-5 0.02619,0.0019 0.03625,0.0049 0.0463,0.01262 0.09525,0.02413 0.13679,0.03937 0.04075,0.01492 0.07805,0.0033 0.118269,0.0016 0.16166,0.02154 0.16166,0.02188 0.26961,0.01151 0.02699,-0.0024 0.0545,-0.0052 0.08229,-0.0055 0.01164,-2.91e-4 0.02275,0.0059 0.0344,0.0093 0.03387,0.01003 0.06588,0.01902 0.112713,0.0122 0.04022,-0.0059 0.08308,-0.008 0.124089,-0.01217 0.0553,-0.0052 0.0553,-0.0052 0.149754,0.01532 0.02355,0.0052 0.04868,0.0039 0.07885,3.71e-4 0.02593,-0.0031 0.05292,0.0017 0.07144,0.0117 0.0077,0.0041 0.0053,0.01138 0.0079,0.01744 -0.08281,0.0076 -0.166687,0.01352 -0.246856,0.024 -0.05186,0.0066 -0.07567,-0.0084 -0.110331,-0.01588 -0.01191,-0.0026 -0.02461,-0.0084 -0.03545,-0.0075 -0.08202,0.0072 -0.164042,0.01524 -0.246063,0.02432 -0.01005,9.52e-4 -0.02249,0.0095 -0.02328,0.01455 -0.0013,0.0094 0.01984,0.01791 0.05001,0.01688 0.04022,-0.0013 0.07964,-0.0083 0.115888,0.0056 0.03043,0.01228 0.06853,0.01717 0.112712,0.01042 0.02672,-0.0039 0.0553,-0.0045 0.08202,-0.008 0.07117,-0.01027 0.135731,-0.01 0.189971,0.01331 0.04128,0.0056 0.08149,-0.0015 0.12065,-0.0056 0.02937,-0.0032 0.05768,-0.0064 0.07885,0 0.04498,0.01339 0.0889,0.02678 0.149754,0.01569 0.06641,0.0085 0.11721,0.02865 0.173037,0.04466 0.02619,0.0077 0.04657,0.01191 0.07646,0.0058 0.0127,-0.0024 0.02778,-0.0028 0.04101,-0.0042 0.02778,-0.0024 0.05689,-0.0085 0.08202,-0.0069 0.0254,0.002 0.04657,0.01191 0.06932,0.01789 0.01111,0.003 0.02381,0.0081 0.03466,0.0075 0.0418,-0.0027 0.08282,-0.0073 0.123825,-0.01111 0.04101,-0.0034 0.08202,-0.0069 0.123032,-0.01035 0.03466,0.0086 0.07011,0.01712 0.104775,0.02569 0.0553,-0.0052 0.110595,-0.01042 0.164835,-0.01527 0.06112,-0.0057 0.06112,-0.0053 0.149754,0.01497 0.03969,0.0092 0.08149,0.0017 0.119063,-0.0038 0.06271,-0.009 0.105039,0.0038 0.149754,0.01714 0.0093,0.0026 0.02619,0.0041 0.03704,0.0024 0.04339,-0.006 0.08123,-0.0029 0.113507,0.0097 0.02275,0.0088 0.04551,0.01265 0.07329,0.01024 0.09631,-0.0091 0.192352,-0.01844 0.288661,-0.02675 0.01191,-9.79e-4 0.0254,0.002 0.03625,0.0046 0.08599,0.02 0.08705,0.02109 0.149754,0.01389 0.05609,-0.0063 0.10795,-0.0097 0.152929,0.0091 0.0093,0.0041 0.02355,0.0099 0.0336,0.0093 0.06879,-0.0052 0.138377,-0.01072 0.20611,-0.01836 0.03096,-0.0036 0.05292,-0.003 0.07726,0.0047 0.03122,0.0097 0.05927,0.0217 0.110331,0.01588 0.141552,-0.01654 0.142346,-0.01442 0.310621,0.0066 0.01164,0.0015 0.02752,-0.0017 0.04101,-0.0035 0.02831,-0.0042 0.04948,3.17e-4 0.07488,0.008 0.05662,0.01744 0.05821,0.01633 0.111919,0.01114 0.04101,-0.0041 0.08361,-0.0058 0.123825,-0.01217 0.06191,-0.0093 0.103188,0.0038 0.149754,0.01603 0.03704,0.0096 0.07964,0 0.119063,-0.0041 0.0426,-0.0046 0.08123,-0.0044 0.113506,0.0086 0.02196,0.0089 0.04551,0.01336 0.07329,0.01093 0.09631,-0.0086 0.192352,-0.01805 0.28866,-0.02672 0.01191,-9.79e-4 0.02619,0.0016 0.03704,0.0038 0.09631,0.02014 0.09631,0.02122 0.190764,0.0108 0.03016,-0.0032 0.0553,-0.0045 0.07805,0.0025 0.02196,0.0067 0.04577,0.01299 0.06853,0.01931 0.04101,-0.0034 0.08281,-0.0051 0.123032,-0.01035 0.03096,-0.0039 0.05292,-0.003 0.07726,0.004 0.03202,0.009 0.05927,0.02529 0.109538,0.01588 0.02593,-0.0046 0.05609,-0.0042 0.08202,-0.0083 0.03096,-0.0054 0.05186,-0.003 0.07646,0.0058 0.03043,0.01045 0.06165,0.02127 0.110331,0.01442 0.05345,-0.0077 0.110331,-0.01008 0.164836,-0.01635 0.03016,-0.0036 0.05106,-0.0012 0.07567,0.0076 0.03043,0.01119 0.06509,0.01796 0.111919,0.01222 0.09551,-0.01116 0.09631,-0.0094 0.189971,0.01116 0.02355,0.0052 0.04868,0.0039 0.07885,3.7e-4 0.02593,-0.0031 0.05292,0.0017 0.07144,0.01169 0.01799,0.01111 0.01641,0.01836 0.01826,0.02442 z m -7.548034,-3.075594 c -0.02752,0.0024 -0.0553,0.0052 -0.09631,-0.02518 -0.0026,-0.0053 -0.0011,-0.01185 -0.0071,-0.0164 -0.01349,-0.0094 -0.03466,-0.01577 -0.0598,-0.01628 -0.04524,-4.1e-4 -0.09948,0.01306 -0.09842,0.0224 7.94e-4,0.0079 0.01535,0.01441 0.04313,0.02026 0.01191,0.0023 0.02117,0.0064 0.03202,0.009 0.03228,0.0076 0.05768,0.02318 0.103717,0.01385 -0.009,-0.02212 -0.0045,-0.01106 0,0 -0.004,0.01377 0.0087,0.0232 0.03916,0.02647 0.0085,8.89e-4 0.0209,-1.17e-4 0.02752,-0.0024 0.02593,-0.0085 0.0299,-0.0194 0.0098,-0.04739 -0.0032,0.0048 -5.29e-4,0.01297 0.0071,0.01496 0.0077,0.002 0.02593,-2.3e-4 0.03519,-0.003 0.02328,-0.0074 0.03493,-0.01663 0.02884,-0.02406 -0.0034,-0.0039 -0.01958,-0.0086 -0.02963,-0.0083 -0.01746,4.02e-4 -0.03334,0.0087 -0.03519,0.03608 z m 6.877579,4.019018 c -0.06112,0.0082 -0.131497,0.0073 -0.192352,0.02273 -0.01085,0.0028 -0.0217,0.0095 -0.02249,0.01455 -5.29e-4,0.0033 0.01614,0.0076 0.02646,0.0098 0.02275,0.0053 0.04789,0.0029 0.07699,4.24e-4 0.04445,-0.0035 0.07091,0.01244 0.105569,0.01992 0.01085,0.0023 0.02513,0.0037 0.03678,0.0027 0.068,-0.0059 0.134937,-0.01206 0.202671,-0.01863 0.01164,-0.0014 0.02434,-0.0042 0.03413,-0.0076 0.03334,-0.01119 0.0299,-0.01794 -0.0029,-0.02511 -0.03625,-0.0078 -0.06509,-0.02156 -0.102129,-0.02757 -0.05318,-0.0085 -0.106627,0.0057 -0.162719,0.0087 z m -4.756414,0.370946 c -0.04101,0.0038 -0.08123,0.0076 -0.122238,0.01143 -0.01349,0.0014 -0.02778,0.0021 -0.04022,0.0038 -0.02593,0.0031 -0.04498,0.01111 -0.05742,0.02328 0.01958,0.0089 0.04313,0.01376 0.06906,0.01209 0.04101,-0.0031 0.08123,-0.0087 0.122238,-0.01069 0.04445,-0.0025 0.07091,0.01315 0.105304,0.02064 0.01111,0.0023 0.02461,0.0023 0.03704,0.0024 0.06218,2.7e-5 0.09948,-0.01955 0.08705,-0.04554 -0.0087,-0.02032 -0.04101,-0.03183 -0.07937,-0.02844 -0.04022,0.0034 -0.08123,0.0072 -0.121444,0.01103 z m 5.031052,-0.90932 c 0.0098,-0.0063 0.02064,-0.0109 0.02566,-0.01643 0.01455,-0.01868 0.0085,-0.03223 -0.01958,-0.04599 -0.03413,-0.01688 -0.07488,-0.0041 -0.112448,-0.0014 -0.0093,5.56e-4 -0.01905,0.0083 -0.02408,0.01312 -0.0032,0.0033 -0.0032,0.01016 0.0019,0.01185 0.04154,0.01347 0.08546,0.02577 0.128588,0.03884 z m -7.299854,-0.897625 c -0.04022,0.0038 -0.08123,0.0069 -0.121179,0.01177 -0.01006,0.0013 -0.01931,0.0084 -0.02487,0.01315 -0.01085,0.0089 0.0011,0.0205 0.03572,0.0208 0.03942,5.55e-4 0.08017,-0.0065 0.121179,-0.01032 0.05212,-0.0048 0.08281,-0.01881 0.06323,-0.02987 -0.01879,-0.01074 -0.04392,-0.01233 -0.07408,-0.0055 z M 6.3798694,4.8618361 c 0.02678,-0.0024 0.05442,-0.0045 0.0812,-0.0076 0.02511,-0.0031 0.04421,-0.01146 0.05652,-0.02363 -0.02117,-0.0089 -0.04477,-0.01336 -0.07075,-0.0117 -0.04104,0.0031 -0.08123,0.0069 -0.12139,0.0114 -0.02511,0.0027 -0.04924,0.01119 -0.05482,0.02355 -0.0057,0.0095 0.05064,0.01363 0.109246,0.008 z M 46.976717,3.8835731 c 0.01085,0.003 0.02196,0.0092 0.03281,0.009 0.02699,-6.11e-4 0.0545,-0.0034 0.07964,-0.0076 0.01085,-0.0017 0.01905,-0.0084 0.02408,-0.0135 0.0032,-0.0033 0.0024,-0.0091 -0.0029,-0.01182 -0.02461,-0.01672 -0.121708,-0.0084 -0.137318,0.01176 -0.0016,0.0036 0.0026,0.0082 0.0037,0.01216 z m -2.691342,-1.910387 c 0.0026,0.0057 0.0034,0.01144 0.0069,0.01712 0.0071,0.01064 0.02567,0.01814 0.05265,0.02293 0.0209,-0.0095 0.03149,-0.0198 0.03043,-0.03057 -0.0011,-0.0057 -0.0037,-0.01144 -0.0071,-0.01712 -0.0069,-0.01065 -0.02567,-0.01814 -0.05265,-0.02293 -0.02064,0.0091 -0.03043,0.01942 -0.03016,0.03057 z m 15.514638,4.364919 c -0.0077,0.0048 -0.01508,0.0097 -0.02328,0.01421 0.02302,0.0099 0.04392,0.01267 0.0598,0.0066 0.01005,-0.0038 0.01561,-0.0094 0.02302,-0.01421 -0.02275,-0.0099 -0.04313,-0.01236 -0.05953,-0.0066 z m -0.5207,0.06077 c 0.01111,0.003 0.02117,0.0071 0.03307,0.009 0.01931,0.0031 0.03678,-0.0034 0.05001,-0.01664 -0.01111,-0.003 -0.02117,-0.0071 -0.03307,-0.009 -0.01931,-0.0031 -0.03678,0.0034 -0.05001,0.01662 z m 0.328877,-0.07334 c -0.0056,0.0088 0.0064,0.01569 0.03757,0.02111 0.0074,-0.0049 0.01746,-0.0094 0.02223,-0.01455 0.0082,-0.0085 -0.0061,-0.01572 -0.03651,-0.02077 -0.0082,0.0045 -0.01561,0.0093 -0.02328,0.01421 z m -1.779323,-0.34769 c -0.0056,0.0088 0.0063,0.01572 0.03757,0.02111 0.0074,-0.0048 0.01746,-0.0094 0.02222,-0.01455 0.0082,-0.0085 -0.0061,-0.01569 -0.03651,-0.02077 -0.0082,0.0045 -0.01561,0.0094 -0.02328,0.01421 z m -2.470679,-2.49146 c -0.0074,0.0048 -0.01482,0.0097 -0.02302,0.01421 0.02275,0.0099 0.04392,0.01268 0.05953,0.0066 0.01005,-0.0038 0.01588,-0.0094 0.02328,-0.01421 -0.02302,-0.0099 -0.04313,-0.01234 -0.0598,-0.0066 z m -2.341563,-1.298355 c 0.02011,0.0021 0.03678,-0.0034 0.0508,-0.01699 -0.01111,-0.003 -0.02117,-0.0071 -0.03307,-0.009 -0.01931,-0.0032 -0.03678,0.0034 -0.04974,0.01662 0.01085,0.0034 0.02196,0.0063 0.03201,0.0093 z m -1.228989,-0.05667 c -0.0074,0.0048 -0.01482,0.0097 -0.02302,0.01421 0.02275,0.0099 0.04392,0.01268 0.05953,0.0066 0.01005,-0.0038 0.01588,-0.0094 0.02328,-0.01421 -0.02275,-0.0099 -0.04313,-0.01198 -0.05979,-0.0066 z M 43.46014,1.9915841 c -0.0074,0.0049 -0.01508,0.0097 -0.02328,0.01421 0.02302,0.0099 0.04392,0.01268 0.0598,0.0066 0.01005,-0.0038 0.01561,-0.0094 0.02302,-0.01421 -0.02275,-0.0099 -0.04286,-0.01198 -0.05953,-0.0066 z M 2.1001974,5.8610091 c -0.01098,-0.003 -0.02194,-0.006 -0.03209,-0.0093 -0.0241,0.01027 -0.03144,0.01942 -0.01786,0.02596 0.0085,0.0041 0.02111,0.0064 0.03209,0.0094 0.02493,-0.01029 0.0306,-0.01908 0.01786,-0.02598 z"
       fill="#ffe492"
       id="path1"
       style="stroke-width:0.264583" />
    <path
       d="m 31.204375,6.0230127 c -0.06403,0.0083 -0.127529,0.01834 -0.191559,0.0241 -0.03387,0.0029 -0.04604,0.01865 -0.05953,0.03334 -0.01085,0.01175 -0.02355,0.01564 -0.04418,0.01826 -0.173831,0.02156 -0.347134,0.04418 -0.520436,0.06644 -0.0217,-0.0042 -0.03254,-0.01148 -0.02778,-0.02056 0.0026,-0.0055 0.0093,-0.01315 0.01588,-0.01402 0.118798,-0.01601 0.236802,-0.03233 0.355865,-0.04545 0.03413,-0.0037 0.04313,-0.01969 0.06032,-0.03299 0.0053,-0.0044 0.0098,-0.01101 0.01693,-0.01371 0.0071,-0.003 0.01773,-0.0029 0.02725,-0.0038 0.191558,-0.02484 0.383117,-0.04932 0.57494,-0.07416 0.0217,0.0042 0.03254,0.01148 0.02778,0.02058 -0.0026,0.0055 -0.0093,0.01315 -0.01587,0.01402 -0.07355,0.0092 -0.146579,0.01841 -0.219604,0.02799 z"
       fill="#ffe492"
       id="path2"
       style="stroke-width:0.264583" />
    <path
       d="m 66.479948,7.9266367 c -0.0291,0.005 -0.06562,0.01191 -0.09631,-0.0082 -0.01482,-0.0097 -0.03043,-0.01259 -0.04948,-0.01 -0.02725,0.0042 -0.05503,0.0077 -0.08308,0.0105 -0.0071,5.29e-4 -0.01667,-0.0032 -0.02408,-0.0063 -0.01587,-0.0061 -0.02937,-0.01656 -0.0463,-0.01908 -0.01667,-0.0025 -0.03678,0.0059 -0.05398,0.0045 -0.02302,-0.002 -0.03281,-0.01148 -0.02672,-0.02061 0.0032,-0.0051 0.0098,-0.01243 0.01693,-0.01368 0.102923,-0.01564 0.103452,-0.01566 0.132821,-0.0034 0.02275,0.0096 0.04366,0.02024 0.07514,0.01339 0.02672,-0.0056 0.0553,-0.0074 0.08255,-0.01122 0.03784,-0.0052 0.03784,-0.0048 0.09975,0.01643 0.01588,0.0054 0.03254,0.0047 0.05265,9.79e-4 0.0172,-0.0029 0.03413,0.0025 0.04815,0.01185 -0.0085,0.01241 -0.02117,0.02061 -0.03836,0.02315 -0.02805,0.0042 -0.0553,0.0074 -0.08969,0.01175 z"
       fill="#ffe492"
       id="path3"
       style="stroke-width:0.264583" />
    <path
       d="m 65.448073,7.8214117 c 0.07011,-0.0092 0.140758,-0.01736 0.210873,-0.02765 0.02884,-0.0043 0.05186,-8.2e-4 0.07223,0.01103 0.02223,0.01288 0.04683,0.01124 0.07355,0.0081 0.01667,-0.0018 0.03281,0.0036 0.04445,0.01347 0.0045,0.0039 0.0034,0.01114 0.0053,0.01691 -0.06138,0.0079 -0.123032,0.01619 -0.184944,0.02342 -0.0071,8.73e-4 -0.01614,-0.0025 -0.02302,-0.0053 -0.01508,-0.0058 -0.02831,-0.01638 -0.04445,-0.01818 -0.03466,-0.0043 -0.06906,0.0063 -0.104246,0.0089 -0.01667,0.0011 -0.03307,-0.0039 -0.04445,-0.01347 -0.0045,-0.0046 -0.0037,-0.01151 -0.0053,-0.01725 z"
       fill="#ffe492"
       id="path4"
       style="stroke-width:0.264583" />
    <path
       d="m 39.932714,4.5600517 c 0.07276,-0.0096 0.145786,-0.01879 0.218811,-0.02836 0.02196,0.0045 0.03201,0.01151 0.02778,0.02059 -0.0026,0.0055 -0.0093,0.01318 -0.01588,0.01405 -0.145785,0.0195 -0.291835,0.03828 -0.437092,0.05704 -0.02196,-0.0045 -0.03228,-0.01148 -0.02778,-0.02059 0.0026,-0.0054 0.009,-0.01315 0.01587,-0.01402 0.07223,-0.0099 0.145256,-0.01916 0.218281,-0.02871 z"
       fill="#ffe492"
       id="path5"
       style="stroke-width:0.264583" />
    <path
       d="m 28.635271,6.8198317 c -0.03281,0.0015 -0.06694,0.01625 -0.103982,0.0066 -0.0071,-0.0017 -0.01746,-0.0075 -0.01693,-0.01087 0.0011,-0.0057 0.0077,-0.01294 0.01482,-0.01537 0.03148,-0.01011 0.07091,-0.01217 0.08652,-0.03881 0.0074,-0.0137 0.0217,-0.01855 0.04127,-0.02164 0.02037,-0.0035 0.03493,-0.0027 0.05133,0.0048 0.02143,0.0096 0.03969,0.02797 0.07276,0.01744 0.0019,0.0059 0.0058,0.01262 0.0042,0.01828 -0.0013,0.0057 -0.0085,0.01109 -0.01508,0.01537 -0.0061,0.0039 -0.01429,0.0075 -0.02223,0.0088 -0.03651,0.0054 -0.07329,0.01 -0.112712,0.01543 z"
       fill="#ffe492"
       id="path6"
       style="stroke-width:0.264583" />
    <path
       d="m 57.76325,6.5805427 c 0.02725,-0.0035 0.05556,-0.0057 0.08229,-0.01138 0.02117,-0.0045 0.0344,-0.0023 0.05133,0.0061 0.02884,0.01468 0.03069,0.01318 0.100277,0.01376 0.0079,1.85e-4 0.01746,0.0054 0.02223,0.01008 0.0026,0.0025 -0.0011,0.0095 -0.0042,0.01323 -0.005,0.0049 -0.01217,0.01122 -0.01878,0.01138 -0.04419,0.0021 -0.08811,0.02466 -0.131763,8.46e-4 -0.02196,-0.01191 -0.04604,-0.0172 -0.07567,-0.01103 -0.01773,0.0037 -0.03651,0.0056 -0.05503,0.0075 -0.01773,0.0019 -0.03625,-0.0017 -0.04763,-0.01238 -0.01667,-0.01569 -0.0074,-0.02209 0.0217,-0.02167 0.01852,2.92e-4 0.03678,-0.0041 0.0553,-0.0064 z"
       fill="#ffe492"
       id="path7"
       style="stroke-width:0.264583" />
    <path
       d="m 67.924837,9.2496057 c 0.03493,-0.0046 0.07012,-0.0099 0.105569,-0.01376 0.0071,-9.26e-4 0.01614,0.003 0.02302,0.0055 0.02699,0.01061 0.02355,0.02984 0.02487,0.04672 0.0011,0.01762 -0.06033,0.03336 -0.08678,0.02196 -0.02937,-0.01283 -0.05583,-0.0276 -0.09578,-0.01839 -0.01535,0.0034 -0.03387,-0.0029 -0.04418,-0.0136 -0.01535,-0.0154 -0.0071,-0.02199 0.02117,-0.02154 0.01667,3.71e-4 0.0344,-0.0042 0.05212,-0.0069 z"
       fill="#ffe492"
       id="path8"
       style="stroke-width:0.264583" />
    <path
       d="m 50.122083,3.9631787 c 0.03598,-0.0049 0.07223,-0.01196 0.108479,-0.01318 0.02117,-8.47e-4 0.03202,0.01101 0.02725,0.01992 -0.0026,0.0056 -0.0093,0.01344 -0.01588,0.01434 -0.07223,0.01048 -0.144727,0.0195 -0.216958,0.02926 -0.02143,-0.0047 -0.03202,-0.01212 -0.02725,-0.02103 0.0026,-0.0056 0.0093,-0.01307 0.01588,-0.01431 0.03598,-0.006 0.07223,-0.01013 0.108479,-0.015 z"
       fill="#ffe492"
       id="path9"
       style="stroke-width:0.264583" />
    <path
       d="m 67.220781,7.9648687 c 0.03493,-0.0045 0.07064,-0.01085 0.105569,-0.01349 0.01852,-0.0012 0.03334,0.007 0.03572,0.01648 0.0011,0.0044 -0.0077,0.01233 -0.01482,0.01431 -0.05001,0.01368 -0.103981,0.0164 -0.156104,0.02389 -0.01693,0.0022 -0.03466,-0.0033 -0.04498,-0.01331 -0.01561,-0.01548 -0.0071,-0.02156 0.02117,-0.02111 0.01799,-5.3e-5 0.03572,-0.0045 0.05345,-0.0068 z"
       fill="#ffe492"
       id="path10"
       style="stroke-width:0.264583" />
    <path
       d="m 58.689291,6.6264737 c 0.01773,-0.0023 0.03598,-0.0077 0.05318,-0.0066 0.01852,0.0015 0.03043,0.01222 0.03625,0.0231 0.0063,0.01241 0.0061,0.02421 7.93e-4,0.03498 -0.0085,0.01847 -0.01746,0.01791 -0.03836,0.0062 -0.03202,-0.01826 -0.03413,-0.0159 -0.09684,-0.01365 -0.0074,1.86e-4 -0.0164,-0.0053 -0.02196,-0.01011 -0.0085,-0.0074 -0.0045,-0.01929 0.01482,-0.02662 0.01455,-0.0053 0.0344,-0.005 0.05212,-0.0073 z"
       fill="#ffe492"
       id="path11"
       style="stroke-width:0.264583" />
    <path
       d="m 65.907389,7.8424197 c 0.02619,-0.0036 0.05212,-0.009 0.07832,-0.0097 0.01852,-7.94e-4 0.03307,0.0074 0.03493,0.01667 7.94e-4,0.0044 -0.0074,0.01206 -0.01402,0.01447 -0.03149,0.01077 -0.0672,0.01236 -0.101864,0.01651 -0.01588,0.0019 -0.03387,-0.0037 -0.04419,-0.01384 -0.01535,-0.01527 -0.0066,-0.02254 0.02064,-0.02093 0.0085,5.29e-4 0.0172,-0.0019 0.02619,-0.0032 z"
       fill="#ffe492"
       id="path12"
       style="stroke-width:0.264583" />
    <path
       d="m 61.763221,7.3775997 c -0.03889,0.0054 -0.07567,6.61e-4 -0.07329,-0.0091 0.0037,-0.01273 0.01958,-0.02127 0.03625,-0.02389 0.02672,-0.0043 0.05345,-0.0079 0.0807,-0.01082 0.0172,-0.0019 0.03281,0.0033 0.0471,0.01265 -0.0082,0.01209 -0.02064,0.02093 -0.03731,0.02392 -0.0172,0.003 -0.03572,0.0049 -0.05345,0.0072 z"
       fill="#ffe492"
       id="path13"
       style="stroke-width:0.264583" />
    <path
       d="m 61.506839,7.3310857 c 0.02593,-0.0036 0.05212,-0.009 0.07832,-0.0097 0.01826,-7.93e-4 0.03307,0.0074 0.03492,0.01667 5.29e-4,0.0044 -0.0077,0.01206 -0.01429,0.01445 -0.03149,0.0108 -0.06721,0.01238 -0.1016,0.01654 -0.01614,0.0018 -0.03413,-0.0037 -0.04445,-0.01384 -0.01535,-0.01527 -0.0066,-0.02254 0.0209,-0.02093 0.0082,5.29e-4 0.0172,-0.0019 0.02619,-0.0032 z"
       fill="#ffe492"
       id="path14"
       style="stroke-width:0.264583" />
    <path
       d="m 58.370469,6.6253627 c 0.02593,-0.0036 0.05212,-0.009 0.07832,-0.01003 0.01826,-7.94e-4 0.03307,0.0074 0.03493,0.01667 5.29e-4,0.0044 -0.0077,0.01169 -0.01429,0.01447 -0.03149,0.01077 -0.0672,0.01236 -0.1016,0.01651 -0.01614,0.0018 -0.03413,-0.0037 -0.04419,-0.01384 -0.01561,-0.01527 -0.0069,-0.02254 0.02064,-0.02093 0.0082,5.29e-4 0.0172,-0.0019 0.02619,-0.0029 z"
       fill="#ffe492"
       id="path15"
       style="stroke-width:0.264583" />
    <path
       d="m 58.222037,6.6025827 c 0.02778,-0.0036 0.03678,-0.0057 0.04551,-0.0059 0.01693,-3.97e-4 0.03413,0.0037 0.04445,0.01421 0.01535,0.01527 0.0066,0.01995 -0.02064,0.02132 -0.03519,0.0016 -0.06959,0.01019 -0.10451,0.01249 -0.01852,0.0012 -0.03307,-0.0074 -0.0344,-0.01667 -7.94e-4,-0.0044 0.0074,-0.01246 0.01402,-0.0141 0.02328,-0.0061 0.04895,-0.01008 0.05556,-0.01135 z"
       fill="#ffe492"
       id="path16"
       style="stroke-width:0.264583" />
    <path
       d="m 61.267921,4.2545107 c -0.01799,0.0023 -0.03678,0.008 -0.05345,0.0065 -0.02222,-0.0021 -0.03149,-0.01201 -0.02619,-0.02151 0.0034,-0.0053 0.0093,-0.01297 0.01588,-0.01426 0.03545,-0.0061 0.0717,-0.01032 0.107156,-0.0149 0.02143,0.0051 0.03096,0.01275 0.02567,0.02225 -0.0032,0.0053 -0.0093,0.01259 -0.01588,0.01426 -0.0172,0.0042 -0.03545,0.0053 -0.05318,0.0076 z"
       fill="#ffe492"
       id="path17"
       style="stroke-width:0.264583" />
    <path
       d="m 39.530548,4.6080477 c 0.0172,-7.94e-4 0.03281,0.0037 0.0463,0.01286 -0.0079,0.01225 -0.02011,0.02048 -0.03651,0.02426 -0.0085,0.0017 -0.01773,0.0031 -0.02672,0.0037 -0.0172,0.0012 -0.03281,-0.0038 -0.0463,-0.01286 0.0079,-0.01228 0.02064,-0.0205 0.03651,-0.02426 0.0085,-0.0017 0.01773,-0.0023 0.02672,-0.0037 z"
       fill="#ffe492"
       id="path18"
       style="stroke-width:0.264583" />
    <path
       d="m 67.03081,7.9635197 c -7.94e-4,-0.0109 0.03281,-0.02416 0.0635,-0.0245 0.01614,0 0.03281,0.0049 0.0426,0.01482 0.01482,0.01511 0.0066,0.02135 -0.02064,0.02085 -0.01667,-3.44e-4 -0.0344,0.0065 -0.05106,0.0057 -0.01905,7.9e-5 -0.03043,-0.0079 -0.0344,-0.01691 z"
       fill="#ffe492"
       id="path19"
       style="stroke-width:0.264583" />
    <path
       d="m 58.852539,6.6724327 c -7.93e-4,-0.0042 -0.0037,-0.009 -0.0021,-0.01291 0.01005,-0.02117 0.07355,-0.02916 0.09075,-0.0113 0.0029,0.0034 0.004,0.009 0.0019,0.01252 -0.0032,0.0054 -0.009,0.01238 -0.01561,0.01408 -0.0172,0.0042 -0.03493,0.0065 -0.05265,0.0074 -0.0077,1.85e-4 -0.01508,-0.0061 -0.02222,-0.0097 z"
       fill="#ffe492"
       id="path20"
       style="stroke-width:0.264583" />
    <path
       d="m 28.833708,6.7562527 c -0.06535,0.0095 -0.06641,0.0088 -0.0553,-0.01042 0.01032,-0.0173 0.02937,-0.02797 0.05768,-0.02865 0.0085,-1.86e-4 0.0172,-0.0012 0.02434,1.85e-4 0.0079,0.0017 0.01905,0.0052 0.0209,0.0097 0.0034,0.0086 -0.0058,0.01834 -0.02222,0.02516 -0.0071,0.0032 -0.01667,0.0027 -0.0254,0.004 z"
       fill="#ffe492"
       id="path21"
       style="stroke-width:0.264583" />
    <path
       d="m 40.358958,4.5458697 c -0.01905,0.0069 -0.03572,0.005 -0.04815,-0.0068 -0.0127,-0.01188 0.0066,-0.0268 0.04022,-0.03104 0.0087,-9.78e-4 0.01826,-0.0043 0.02646,-0.0029 0.0085,9.53e-4 0.01693,0.0053 0.02196,0.0098 0.009,0.0074 0.0037,0.01781 -0.01376,0.02699 -0.0071,0.0036 -0.01773,0.0031 -0.02672,0.004 z"
       fill="#ffe492"
       id="path22"
       style="stroke-width:0.264583" />
    <path
       d="m 66.912806,7.9341247 c 0.0048,-0.0052 0.0098,-0.01032 0.01508,-0.01511 0.02037,0.0061 0.0291,0.01363 0.02408,0.02267 -0.0032,0.0055 -0.0098,0.01032 -0.01455,0.0155 -0.02037,-0.0061 -0.02884,-0.01405 -0.02461,-0.02307 z"
       fill="#ffe492"
       id="path23"
       style="stroke-width:0.264583" />
    <path
       d="m 29.740964,11.258323 c 0,-0.0046 0.0074,-0.01209 0.01349,-0.01376 0.01138,-0.003 0.02593,0.0021 0.03598,0.01257 0.01402,0.01503 0.0061,0.02331 -0.01931,0.01969 -0.01773,-0.0026 -0.0299,-0.01003 -0.03016,-0.01849 z"
       fill="#ffe492"
       id="path24"
       style="stroke-width:0.264583" />
    <path
       d="m 59.077964,6.3028357 c 0.0071,0.0033 0.01429,0.0065 0.02117,0.01019 -0.009,0.01439 -0.02064,0.02077 -0.03281,0.01725 -0.0077,-0.0021 -0.01429,-0.0065 -0.0217,-0.0098 0.009,-0.01437 0.02011,-0.01998 0.03334,-0.01762 z"
       fill="#ffe492"
       id="path25"
       style="stroke-width:0.264583" />
    <path
       d="m 58.884554,6.2863787 c 0.01085,-0.006 0.02408,-0.0033 0.03969,0.0075 -0.0048,0.0051 -0.009,0.01093 -0.01508,0.01492 -0.01032,0.0063 -0.02408,0.0036 -0.03916,-0.0075 0.0042,-0.0047 0.0093,-0.0098 0.01455,-0.0149 z"
       fill="#ffe492"
       id="path26"
       style="stroke-width:0.264583" />
    <path
       d="m 58.735858,6.3044497 c 0.0071,0.0033 0.01429,0.0065 0.02117,0.01021 -0.009,0.01437 -0.02011,0.02074 -0.03281,0.01722 -0.0077,-0.0021 -0.01429,-0.0065 -0.0217,-0.0098 0.009,-0.01439 0.02011,-0.0204 0.03334,-0.01765 z"
       fill="#ffe492"
       id="path27"
       style="stroke-width:0.264583" />
    <path
       d="m 58.626056,6.2835207 c 0.0082,0.0076 0.004,0.01699 -0.01164,0.02783 -0.0071,-0.0033 -0.01535,-0.0058 -0.0209,-0.01035 -0.009,-0.0071 -0.0048,-0.01696 0.01138,-0.02783 0.0066,0.0037 0.01376,0.007 0.02117,0.01035 z"
       fill="#ffe492"
       id="path28"
       style="stroke-width:0.264583" />
  </g>
</svg>
